<svg width="467" height="715" viewBox="0 0 467 715" fill="none" xmlns="http://www.w3.org/2000/svg">
<g id="g1">
<path id="bulb" d="M229.535 0.500917C220.03 0.494917 210.734 0.917919 204.704 1.77045C164.444 7.4626 135.652 17.9238 105.767 37.7197C87.5274 49.8017 80.4687 55.4453 68.3392 67.6376C35.2274 100.921 12.6273 140.824 4.33922 180.638C-2.16824 211.898 -0.358933 247.167 9.45055 280.272C18.6138 311.197 32.0679 337.253 59.1107 378.196C87.358 420.963 101.215 430.83 111.105 462.456C117.383 482.535 122.012 497.859 126.999 507.862C131.42 516.73 133.117 517.375 138.937 523.216C144.161 528.459 149.163 530.811 155.091 532.438C157.491 533.097 160.556 533.874 161.794 534.001C163.92 534.219 172.479 532.644 179.419 530.927C202.751 525.153 221.305 522.766 250.128 522.757C256.602 522.755 263.208 522.923 269.785 523.399C269.412 523.191 269.006 522.748 268.628 521.903C257.921 497.963 260.759 460.388 262.468 447.407C264.065 435.282 268.242 421.836 273.316 412.481C274.51 410.28 275.587 408.69 276.074 407.94C274.164 408.508 272.223 408.972 269.3 409.745C253.004 414.057 230.794 417.695 216.91 416.788C203.955 415.942 194.625 413.789 186.236 411.503C186.927 412.314 191.153 417.238 192.923 419.966C199.36 429.885 201.594 434.936 207.421 450.069C211.857 461.589 213.485 495.997 207.447 513.454C206.418 516.429 204.115 525.958 204.115 525.013C204.115 524.844 200.537 527.186 201.367 525.075C211.607 499.013 209.162 472.175 206.851 457.126C205.512 448.406 197.667 432.816 193.992 426.817C186.161 414.036 184.44 412.836 182.658 410.712C181.121 410.244 180.114 409.858 177.835 409.253C157.716 403.911 132.111 387.071 132.111 381.831C132.111 378.586 135.145 378.66 141.146 381.237C150.052 385.062 161.265 391.732 169.267 397.099C170.626 398.01 181.146 406.492 184.39 409.104C186.353 410.214 195.42 411.82 201.939 413.149C221.21 417.079 247.738 413.487 272.691 406.667L277.431 405.372C277.431 405.372 288.306 392.603 291.279 389.602C306.228 374.514 317.904 363.935 330.814 356.515C339.526 351.507 348.424 347.261 351.794 350.304C356.349 354.415 348.002 364.316 333.568 376.843C317.348 390.919 299.923 399.819 284.318 405.39C281.629 406.35 280.474 406.693 279.07 407.28C278.433 408.111 277.913 408.924 277.113 410.38C265.498 431.515 261.717 465.027 264.671 491.886C266.641 509.793 270.352 520.105 270.917 521.948C271.13 522.641 270.939 523.219 270.566 523.444C278.37 524.043 286.118 525.121 293.521 527.142C316.27 533.35 339.138 522.184 352.896 493.173C357.859 482.706 360.673 456.174 367.808 439.546C377.105 417.879 390.408 394.916 410.32 367.632C422.616 350.783 428.106 342.78 433.234 334.239C450.808 304.967 460.624 273.029 465.118 230.483C466.564 216.803 466.219 194.994 464.404 185.147C458.642 153.903 448.995 129.663 432.279 104.421C409.811 70.4953 367.607 37.6514 323.613 19.8564C299.035 9.91489 279.988 4.85848 255.613 1.8017C248.75 0.941109 239.039 0.506847 229.535 0.500917ZM349.535 351.374C349.206 351.359 348.827 351.376 348.413 351.388C345.422 351.469 336.682 355.249 331.538 358.558C319.132 366.537 310.361 373.758 293.415 391.517C283.598 401.805 290.921 393.08 280.765 404.399L284.917 402.731C287.2 401.814 290.376 400.488 291.976 399.786C301.244 395.72 311.867 390.28 324.849 380.977C340.677 369.635 349.378 358.105 350.611 353.388C351.04 351.746 350.519 351.417 349.535 351.374ZM134.572 380.655C134.022 380.684 133.794 380.936 133.794 381.395C133.794 385.332 149.305 395.441 164.488 402.487C167.685 403.971 178.668 407.625 180.452 408.19C179.258 407.313 171.698 401.404 171.228 400.911C168.529 398.082 149.35 385.991 140.452 382.438C137.299 381.179 135.487 380.607 134.572 380.655Z" fill="#C53650" stroke="#C53650"/>
<path id="bulb_border" d="M161.795 534C160.557 533.873 157.492 533.098 155.092 532.439C149.164 530.812 144.161 528.46 138.937 523.216C133.117 517.376 131.42 516.73 126.999 507.862C122.012 497.859 117.384 482.536 111.106 462.457C101.216 430.831 87.3577 420.963 59.1103 378.196C32.0674 337.253 18.6134 311.198 9.45012 280.273C-0.359365 247.168 -2.16876 211.898 4.33871 180.637C12.6268 140.823 35.2264 100.92 68.3383 67.6371C80.4678 55.4448 87.5277 49.8016 105.767 37.7196C135.652 17.9237 164.443 7.46195 204.704 1.7698C216.764 0.0647354 241.888 0.0804147 255.613 1.80159C279.988 4.85838 299.035 9.91569 323.613 19.8572C367.607 37.6522 409.811 70.4954 432.278 104.421C448.995 129.663 458.641 153.904 464.403 185.148C466.219 194.994 466.563 216.804 465.117 230.484C460.623 273.03 450.809 304.967 433.235 334.239C428.107 342.78 422.616 350.782 410.319 367.631C390.408 394.915 377.104 417.879 367.807 439.545C360.673 456.174 357.859 482.705 352.895 493.172C339.137 522.184 316.271 533.349 293.522 527.141C279.637 523.353 264.543 522.752 250.127 522.756C221.304 522.765 202.749 525.152 179.418 530.926C172.478 532.644 163.92 534.218 161.795 534ZM167.193 531.201C170.606 530.524 176.71 529.07 182.71 527.617C204.651 522.306 226.671 521.114 255.014 520.778C272.677 520.569 282.96 521.852 294.359 524.823C312.782 529.625 328.54 520.299 336.901 511.316C348.445 498.912 352.617 485.211 356.9 465.878C363.798 434.741 371.306 425.319 380.21 407.586C387.697 392.675 392.018 385.951 409.921 361.353C431.981 331.042 440.62 315.466 449.158 290.603C457.983 264.908 464.211 225.352 462.964 202.926C461.613 178.618 452.821 147.931 440.889 125.875C425.798 97.9807 408.522 78.0101 381.795 57.5665C345.158 29.5423 299.28 10.8238 254.158 5.48916C212.11 0.517856 164.042 9.77184 125.067 30.3417C115.266 35.5149 94.4849 49.2774 85.3004 56.6783C70.8374 68.3327 51.7064 89.4379 40.046 106.603C-5.79221 174.079 -8.82364 246.704 30.9236 325.148C38.959 341.007 48.0724 353.083 63.5281 378.082C86.5595 415.333 102.841 423.248 115.043 464.887C121.308 486.268 122.863 492.693 128.118 502.924C135.009 516.339 142.764 524.622 151.14 528.621C156.233 531.053 161.132 532.404 167.193 531.201Z" fill="#C53650" stroke="#C53650" stroke-width="1.00157"/>
<path id="base" d="M232.97 713.748C228.497 712.949 223.585 711.12 220.177 708.986C215.007 705.749 206.617 693.547 206.617 689.94C203.389 689.683 199.825 690.244 187.361 690.53C159.87 691.161 153.978 689.745 145.643 682.872C139.248 677.6 137.603 672.784 137.678 662.107C137.732 654.517 138.909 652.032 140.308 648.384C140.92 646.79 141.991 644.954 142.994 643.432C142.383 641.881 142.527 640.296 142.495 639.444C142.238 632.475 150.529 625.013 156.476 624.147C155.167 623.34 154.159 622.464 153.149 621.5C147.758 616.359 145.534 611.596 145.137 603.792C144.739 595.989 150.19 590.12 151.804 588.334L155.599 584.639C151.968 582.138 148.646 578.702 146.548 574.804C144.494 570.91 142.33 560.757 145.098 553C146.64 548.677 150.352 543.492 153.658 540.823C155.461 537.763 154.407 539.167 156.439 536.607C159.609 532.613 161.456 532.535 163.19 532.535C164.194 532.535 163.727 533.275 161.392 534.588C152.279 539.714 157.957 550.357 169.777 553.255C176.604 554.929 185.379 555.735 201.125 556.103C214.72 556.42 220.884 556.208 234.941 555.449C245.001 554.906 259.307 552.893 263.307 552.443C274.152 551.224 290.756 549.653 297.368 548.323C307.625 546.26 306.983 546.628 315.287 543.923C318.289 542.946 321.755 540.934 321.48 537.226C321.252 534.147 319.721 532.992 316.743 530.654C311.533 526.566 313.738 527.209 315.615 527.935C317.838 528.794 318.316 529.762 320.904 531.863C324.248 534.577 323.849 540.292 321.766 541.753C330.2 546.722 339.213 553.308 336.306 560.787C335.052 564.014 331.11 567.496 329.247 568.948C329.247 568.948 334.115 571.204 336.502 572.737C338.679 574.137 343.798 577.194 343.263 584.074C342.594 592.676 338.332 598.136 334.495 600.949C328.496 605.348 318.397 611.063 293.739 615.001C259.764 620.427 252.766 622.239 242.44 624.519C220.478 629.366 209.683 630.902 194.804 631.295C179.369 631.703 170.772 630.685 162.943 627.523L158.604 625.77C154.254 626.205 150.584 629.155 148.158 632.018C145.453 635.213 144.589 638.291 145.437 641.121C146.733 645.446 151.678 650.063 157.482 651.81C169.481 655.424 174.228 656.195 222.659 656.511C268.781 656.813 281.764 655.237 295.776 652.886C304.795 651.372 315.156 647.888 321.704 643.941C332.896 637.197 335.876 632.308 338.522 626.23C341.734 618.853 336.384 608.661 331.157 603.203C330.104 602.103 331.159 601.826 331.58 601.826C333.301 601.826 338.474 609.096 340.22 613.46C342.461 619.059 342.191 622.164 340.513 627.839C339.504 631.252 337.514 633.704 332.834 638.347C321.875 649.219 306.115 653.692 291.495 656.316C275.03 659.272 183.309 660.121 167.858 657.46C154.803 655.212 150.879 652.304 146.55 648.606C145.937 648.082 144.138 646.183 143.896 645.288C142.87 646.665 142.242 648.885 141.857 650.135C141.12 652.522 139.789 655.302 139.768 660.562C139.739 667.71 140.186 671.239 142.227 675.232C148.954 688.393 166.758 690.24 214.767 686.792C239.938 684.985 260.012 682.096 283.495 676.903C319.052 669.04 335.877 661.662 340.324 653.968C342.912 649.492 343.398 644.661 339.865 640.138C338.151 637.943 334.922 635.465 335.114 635.273C335.738 634.648 335.143 634.75 337.363 636.213C341.037 638.634 344.334 643.338 344.321 646.497C344.263 660.448 331.319 667.606 294.77 676.328C288.125 677.913 285.261 678.881 280.555 679.654C276.47 694.536 262.706 708.751 251.278 712.252C246.215 713.803 238.003 714.648 232.97 713.748ZM249.391 711.147C257.116 709.396 264.228 702.937 270.026 696.169C273.882 691.666 277.152 684.181 278.155 680.326C276.704 680.597 271.952 681.541 266.352 682.657C255.597 684.799 233.245 687.71 218.765 688.917C214.011 689.313 210.139 689.619 208.258 689.745C207.428 690.576 210.342 695.423 213.504 699.918C216.188 703.734 221.658 708.821 228.183 710.98C235.024 713.243 239.926 713.292 249.391 711.147ZM250.138 620.227C254.572 619.268 268.317 616.853 280.683 614.859C314.139 609.464 322.186 606.317 329.442 601.772C335.176 598.18 337.496 594.658 339.616 590.409C343.505 582.616 339.484 577.261 335.665 574.584C332.092 572.08 329.93 571.296 327.628 570.021C310.488 578.498 285.789 581.367 247.507 583.333C239.507 583.744 226.249 585.288 215.849 586.14C205.118 587.02 193.506 587.903 185.457 587.904C173.194 587.906 171.062 588 165.923 587.445C163.612 587.196 159.612 586.781 157.348 585.372C155.012 586.94 153.048 589.978 151.625 591.567C150.203 593.157 147.872 597.716 147.681 601.951C147.55 604.836 148.032 611.125 151.247 615.709C157.309 624.354 164.723 626.681 174.3 628.035C181.128 629.001 195.701 629.402 206.104 628.28C221.912 626.574 235.574 623.374 250.138 620.227ZM212.038 584.275C223.418 583.098 236.704 581.816 244.104 581.383C287.25 578.861 310.109 575.273 323.856 568.595C334.811 563.274 336.566 556.757 332.155 552.048C330.589 550.376 327.779 547.805 326.779 547.082C325.882 546.433 322.638 543.892 320.232 543.397C316.222 545.486 309.567 547.642 306.126 548.271C293.84 550.513 297.97 550.468 250.323 555.862C222.87 558.97 214.944 558.2 201.952 557.846C186.298 557.419 165.898 556.595 160.274 551.659C156.558 548.398 155.93 547.237 154.357 542.496C152.028 545.099 149.448 548.239 147.839 551.826C144.048 560.278 147.059 570.603 147.904 572.319C150.487 577.564 154.162 584.394 164.77 585.397C182.103 587.036 197.927 585.734 212.038 584.275Z" fill="#C53650" stroke="#C53650"/>
<path id="mouth" d="M204.114 525.013C204.114 524.845 200.538 527.186 201.367 525.075C211.608 499.013 209.163 472.174 206.852 457.126C205.513 448.406 197.667 432.817 193.991 426.818C186.16 414.036 184.44 412.836 182.658 410.712C181.121 410.244 180.113 409.857 177.834 409.252C157.715 403.91 132.111 387.07 132.111 381.83C132.111 378.585 135.144 378.661 141.145 381.238C150.051 385.063 161.264 391.732 169.266 397.099C170.625 398.01 181.147 406.492 184.391 409.104C186.354 410.214 195.421 411.82 201.94 413.149C221.211 417.079 247.738 413.487 272.691 406.667L277.431 405.371C277.431 405.371 288.305 392.604 291.278 389.603C306.228 374.515 317.904 363.935 330.814 356.515C339.526 351.508 348.425 347.262 351.795 350.304C356.349 354.415 348.001 364.316 333.567 376.843C317.347 390.919 299.923 399.818 284.318 405.389C281.629 406.349 280.474 406.692 279.069 407.279C278.432 408.111 277.912 408.923 277.112 410.379C265.498 431.514 261.717 465.026 264.671 491.885C266.64 509.792 270.353 520.105 270.918 521.948C271.402 523.527 269.845 524.624 268.628 521.903C257.921 497.963 260.759 460.387 262.468 447.407C264.065 435.281 268.241 421.836 273.315 412.482C274.509 410.281 275.587 408.69 276.074 407.941C274.164 408.509 272.222 408.973 269.299 409.746C253.003 414.057 230.795 417.695 216.91 416.788C203.955 415.942 194.626 413.788 186.236 411.502C186.927 412.313 191.152 417.237 192.922 419.965C199.359 429.885 201.594 434.935 207.422 450.069C211.858 461.588 213.485 495.997 207.447 513.454C206.418 516.429 204.114 525.958 204.114 525.013ZM291.977 399.786C301.245 395.72 311.867 390.279 324.849 380.977C340.678 369.634 349.378 358.106 350.61 353.388C351.182 351.2 350.067 351.342 348.414 351.387C345.423 351.468 336.681 355.249 331.538 358.557C319.132 366.537 310.361 373.758 293.415 391.517C283.598 401.805 290.922 393.08 280.766 404.4L284.917 402.731C287.2 401.813 290.377 400.488 291.977 399.786ZM171.227 400.912C168.528 398.083 149.349 385.99 140.452 382.437C135.407 380.423 133.795 380.17 133.795 381.395C133.795 385.332 149.304 395.441 164.487 402.487C167.685 403.971 178.668 407.624 180.452 408.189C179.258 407.312 171.697 401.404 171.227 400.912Z" fill="#FCF9F6" stroke="#FCF9F6" stroke-width="0.842642"/>
<g id="gear2">
<path id="path77" d="M331.337 162.969C325.015 162.809 316.372 165.363 311.732 167.192C304.153 170.179 294.712 180.054 290.762 188.578C287.951 194.645 288.161 203.029 289.374 208.874C292.146 222.226 302.812 232.778 316.468 236.277C318.659 236.839 323.442 237.753 328.14 237.622C335.669 237.412 338.126 236.036 342.157 234.52C353.635 230.204 360.178 220.307 362.091 209.923C364.68 195.873 361.232 181.443 353.324 173.212C347.324 166.968 337.768 163.132 331.337 162.969ZM330.771 164.061C336.278 164.364 338.993 165.288 343.614 167.572C353.801 172.607 358.609 181.376 360.735 191.569C361.926 197.283 361.629 207.776 360.272 212.416C357.254 222.736 351.199 229.65 338.883 234.548C333.985 236.496 325.328 237.224 317.54 235.241C308.882 233.037 298.553 226.595 294.324 218.659C290.125 210.781 288.963 200.827 290.425 193.392C291.592 187.457 301.919 170.079 316.861 166.495C320.971 165.509 326.519 164.13 330.771 164.061Z" fill="#FCF9F6" stroke="#FCF9F6"/>
<path id="path75" d="M331.071 156.2C329.558 156.023 326.329 156.009 324.492 156.268C317.049 157.321 311.845 159.316 305.165 163.677C297.691 168.556 294.43 171.772 290.216 177.931C282.537 189.156 280.852 198.213 283.285 210.259C286.153 224.464 290.122 229.238 296.544 235.501C302.236 241.051 309.591 244.85 317.068 246.101C324.622 247.364 335.313 246.104 343.796 242.95C359.471 237.124 365.192 230.898 370.505 213.876C374.232 201.935 373.652 191.991 368.687 182.685C363.34 172.664 357.465 166.595 345.795 160.826C338.588 157.263 336.364 156.819 331.071 156.2ZM327.946 157.401C331.613 157.33 337.92 158.132 344.914 161.528C351.909 164.923 359.591 170.913 362.892 175.425C366.637 180.543 370.601 188.501 371.603 194.11C373.037 202.142 370.146 215.059 364.519 225.767C360.501 233.412 354.019 237.874 339.976 242.661C335.356 244.236 332.51 244.695 326.158 244.892C313.123 245.294 305.407 242.414 297.15 234.062C291.07 227.911 288.561 225.001 286.007 215.875C282.358 202.839 282.183 196.456 287.636 185.147C291.481 177.173 295.182 172.506 302.054 167.399C312.541 159.606 321.263 157.532 327.946 157.401Z" fill="#FCF9F6" stroke="#FCF9F6"/>
<path id="path69" d="M302.37 108.845C295.301 110.726 278.055 119.922 270 127.522C258.81 138.079 248.326 149.244 242.15 161.513C228.742 188.147 232.266 223.631 251.109 251.688C258.979 263.408 275.217 276.816 290.314 284.063C297.926 287.718 303.469 289.298 311.749 290.173C314.874 290.503 325.317 290.659 334.95 290.87C347.189 291.139 359.126 288.466 372.667 282.459C393.965 273.01 408.083 261.17 418.158 236.653C422.61 225.817 424.704 216.279 424.704 202.071C424.704 182.279 422.032 168.537 415.554 155.007C408.735 140.764 402.719 131.631 384.488 119.93C364.853 107.329 351.167 105.417 337.183 105.031C323.981 104.667 315.204 105.429 302.37 108.845ZM351.313 108.07C360.112 109.902 364.642 110.716 377.999 118.252C388.75 124.317 397.432 130.074 404.956 139.922C416.179 154.611 423.309 175.708 423.332 200.931C423.346 215.976 422.01 222.239 417.548 234.383C411.609 250.544 399.267 267.211 382.422 276.27C367.803 284.131 354.346 288.148 342.971 288.851C324.194 290.011 306.181 288.85 292.984 283.332C283.243 279.258 268.848 268.748 259.661 259.561C244.128 244.028 236.294 221.743 235.438 198.639C234.864 183.144 237.069 174.359 243.468 161.925C251.184 146.929 265.009 132.296 281.527 120.977C295.196 111.611 305.857 107.201 324.921 106.562C332.952 106.293 343.362 106.606 351.313 108.07Z" fill="#FCF9F6" stroke="#FCF9F6"/>
<path id="path67" d="M337.705 71.3161C335.728 71.4057 333.862 74.7471 331.034 78.0784C321.913 88.8194 321.288 86.1626 315.392 79.8231C313.486 77.7733 310.633 75.1836 308.857 74.2411C305.979 72.7146 305.381 72.6283 303.378 73.4579C301.683 74.1601 300.837 75.2201 299.939 77.7684C299.283 79.6271 298.168 82.488 297.681 84.1962C295.798 90.7959 295.211 90.9657 292.62 90.9657C292.032 90.9657 288.495 89.1522 286.613 87.4081C282.267 83.3829 281.572 82.3665 278.033 82.3665C274.079 82.3665 273.019 85.6488 270.554 91.0675C269.122 94.2129 267.535 97.2068 266.299 97.9068C264.395 98.9848 261.662 99.1443 256.175 97.4238C253.763 96.6675 249.948 95.2925 248.821 95.508C246.25 95.9995 246.29 99.9898 245.194 105.321C243.83 111.957 244.665 112.316 235.128 112.593C227.286 112.82 225.366 112.469 223.911 113.411C221.426 115.02 220.245 119.881 224.341 125.583C233.055 137.714 225.852 137.476 219.675 138.598C209.193 140.502 207.87 142.364 212.234 155.572C214.706 163.056 217.886 167.929 216.399 169.213C214.64 170.732 210.371 172.099 206.361 173.114C202.99 173.968 198.176 174.987 196.933 176.465C193.871 180.104 197.116 182.347 203.386 189.409C207.945 194.544 208.466 196.668 203.319 200.471C197.942 204.443 194.448 207.709 194.886 210.497C195.337 213.367 197.085 214.058 203.561 217.207C212.259 221.436 217.569 222.315 208.811 228.404C207.245 229.493 204.272 231.341 203.135 232.475C201.539 234.067 201.008 235.826 202.374 238.355C203.269 240.011 206.534 241.086 208.822 242.804C210.754 244.254 213.04 245.092 213.578 246.34C213.873 247.023 212.8 249.342 211.605 251.71C208.969 256.932 208.669 260.211 210.895 262.225C212.144 263.356 213.616 264.421 218.599 264.421C226.203 264.356 225.088 263.55 222.886 270.309C220.801 276.698 220.587 280.502 222.185 282.784C223.811 285.106 227.905 285.99 233.097 285.14C240.615 283.908 240.157 283.507 239.583 290.841C238.954 298.891 239.995 301.539 244.089 302.308C246.226 302.708 248.815 302.44 252.462 300.641C258.517 297.655 261.772 295.963 264.621 297.436C268.087 299.229 267.407 302.267 267.829 309.972C268.262 317.866 269.299 321.203 272.681 322.591C276.123 324.004 279.169 324.033 284.486 319.753C287.166 317.596 291.421 314.569 292.882 314.087C296.7 312.827 296.635 315.74 298.809 322.289C300.044 326.011 300.306 326.963 302.608 329.893C307.661 336.324 315.072 329.581 319.623 320.93C324.079 312.461 327.527 314.16 330.882 324.05C333.31 331.205 336.449 333.147 340.111 333.147C345.41 333.147 348.019 327.015 350.446 319.721C353.305 311.13 357.342 313.184 363.486 322.153C367.033 327.331 368.343 327.329 370.831 327.329C374.47 327.329 376.597 325.376 377.478 323.73C377.869 322.999 379.572 320.782 379.613 316.63C379.72 305.713 381.71 304.934 386.96 308.772C394.282 314.125 396.905 314.714 401.353 312.003C403.9 309.386 403.471 305.399 403.329 302.909C402.939 296.056 402.459 293.878 404.244 292.271C404.884 291.694 406.75 292.796 408.974 294.272C413.564 297.32 417.575 298.626 421.723 297.257C425.802 295.911 426.635 293.397 424.38 286.165C422.603 280.465 422.054 275.579 422.933 273.288C423.294 272.348 425.203 271.419 428.838 272.371C433.906 273.697 437.849 273.737 440.576 272.268C441.525 271.757 442.647 271.194 442.821 268.824C443.012 266.225 441.934 263.813 439.66 258.893C438.135 255.595 436.474 253.183 436.814 250.834C436.955 249.854 437.447 249.341 440.955 248.116C443.771 247.133 449.191 246.292 452.992 243.374C455.592 241.378 454.912 237.601 449.794 233.888C445.477 230.755 442.886 228.262 442.886 227.245C442.886 226.748 444.725 225.99 446.849 225.19C448.95 224.399 450.723 223.452 452.2 222.731C454.455 221.629 456.448 221.107 456.487 218.58C456.525 216.126 455.588 214.185 450.094 210.848C442.865 206.456 442.96 202.923 449.733 199.048C455.204 195.918 457.072 194.387 456.786 191.4C456.578 189.23 456.175 189.514 450.769 185.348C448.264 183.416 441.065 180.257 441.947 176.584C442.277 175.209 444.187 172.995 445.95 170.783C447.388 168.979 448.333 167.822 449.552 164.886C452.294 158.285 448.053 155.247 442.468 153.084C436.938 150.942 434.576 149.05 434.128 146.706C433.924 145.639 434.388 141.091 435.144 137.926C437.114 129.676 437.563 128.918 434.546 127.657C433.159 127.078 432.076 126.736 428.097 126.786C422.742 126.853 421.292 126.397 421.72 121.432C421.889 119.482 422.345 115.758 422.564 113.93C423.173 108.826 423.638 104.756 421.037 103.853C419.056 103.165 418.202 102.975 409.514 104.93C406.514 105.605 403.358 106.146 402.446 105.918C400.533 105.441 399.835 103.916 398.06 96.8538C396.737 91.594 396.102 86.6132 391.947 86.5106C390.302 86.47 387.411 87.7647 384.622 89.0165C377.184 92.3557 377.085 92.3378 374.574 87.0751C371.599 80.842 369.608 76.0466 365.866 76.0556C363.631 76.0606 360.727 78.5309 356.934 80.8983C350.058 85.1898 348.811 85.5899 343.167 76.8657C339.925 71.8544 339.642 71.2282 337.705 71.3161ZM337.56 73.1058C339.162 72.6078 340.366 74.5056 341.321 76.3012C344.688 82.6341 348.601 85.0961 349.785 85.3683C351.239 85.7024 354.069 84.4961 356.58 82.7796C359.818 80.5659 364.427 77.5042 365.389 77.5042C367.437 77.5042 368.407 78.2458 371.179 83.1105C372.263 85.0134 374.759 90.8711 375.75 91.5201C377.433 92.6226 379.474 92.7524 382.966 90.8353C388.045 88.0471 391.836 87.5176 393.318 88.15C395.23 88.9662 395.95 93.2178 396.656 95.898C398.104 101.405 399.675 106.434 401.916 106.984C403.203 107.299 406.671 106.77 409.814 105.952C411.173 105.598 416.121 104.175 417.872 104.467C422.561 105.251 422.427 107.588 421.895 111.92C421.342 116.425 420.449 122.937 421.03 125.143C421.554 127.136 424.21 127.859 428.656 127.864C430.761 127.867 434.282 127.945 435.156 129.465C435.995 130.923 434.667 136.134 433.955 139.575C433.559 141.492 433.291 144.3 433.133 146.531C432.967 148.874 437.749 152.208 441.019 153.255C446.883 155.131 448.53 157.221 449.466 159.865C450.246 162.066 448.082 165.909 445.97 169.114C444.051 172.027 439.063 174.861 441.254 179.55C442.006 181.158 450.465 186.261 452.309 187.704C454.488 189.409 455.787 190.255 455.61 191.811C455.529 192.523 453.348 195.774 449.096 197.979C447.487 198.814 444.427 200.347 443.75 203.732C443.186 206.55 443.149 207.523 449.668 211.965C456.263 216.459 456.688 219.364 451.53 221.717C445.681 224.385 441.816 224.91 441.637 227.108C441.481 229.02 441.856 229.48 448.888 235.202C451.751 237.531 452.736 238.313 452.955 240.369C453.181 242.478 448.402 244.514 446.844 245.002C440.771 246.906 436.067 247.563 435.569 249.823C434.891 252.898 436.235 254.663 438.969 260.153C441.573 265.385 443.214 267.499 441.231 270.644C439.91 272.738 434.72 272.626 431.042 271.862C421.944 269.971 422.406 271.597 421.608 274.253C421.045 276.125 421.459 279.148 423.079 285.897C424.954 293.708 423.709 296.568 419.024 296.568C416.015 296.568 411.288 294.313 407.555 291.476C401.196 286.643 400.606 292.666 401.915 303.911C402.513 309.051 400.875 310.57 399.684 311.161C396.824 312.579 394.265 312.393 387.062 307.128C385.487 305.976 384.02 305.283 382.357 305.437C380.783 305.584 378.335 306.079 378.32 314.788C378.314 318.314 377.482 321.065 376.514 322.898C375.725 324.393 373.134 325.776 371.385 325.971C368.23 326.322 367.557 324.912 363.284 320.065C359.526 315.802 357.717 312.845 355.414 312.845C355.032 312.845 353.27 312.898 352.048 313.926C350.456 315.266 349.8 317.153 348.735 320.727C347.671 324.302 346.056 328.271 344.463 329.611C341.439 332.156 338.277 332.474 336.254 329.902C334.708 327.936 333.569 326.352 332.57 323.705C332.313 323.026 330.432 319.259 329.897 318.004C329.018 315.944 327.8 313.456 325.188 313.456C322.488 313.456 319.579 316.544 317.435 320.776C314.407 326.75 310.982 330.82 307.692 330.82C304.023 330.82 301.733 326.622 301.336 324.534C301.167 323.641 299.323 319.673 298.558 317.173C296.969 311.987 294.928 312.007 292.755 312.844C289.666 314.033 288.977 315.333 283.688 318.809C278.271 322.368 276.246 322.542 273.599 321.535C270.511 320.361 269.992 316.562 269.388 308.76C268.753 300.566 269.054 297.803 264.814 296.031C261.019 294.445 257.914 296.496 251.811 299.36C246.941 301.645 244.486 301.066 242.926 300.355C241.422 299.67 240.714 296.849 240.714 294.391C240.714 292.76 240.995 289.416 241.376 287.622C242.631 281.724 235.774 283.227 230.879 283.96C221.846 284.752 220.861 280.738 224.566 269.798C226.153 265.109 226.503 263.882 224.953 263.426C223.554 263.014 223.583 263.305 217.67 263.108C209.378 262.832 209.556 258.726 212.787 252.175C214.078 249.557 215.675 247.698 215.549 246.034C215.383 243.857 211.54 243.088 209.72 241.646C208.248 240.48 206.153 239.867 204.488 238.26C202.178 236.031 204.462 233.7 209.366 229.771C213.395 226.543 215.699 225.854 214.258 222.374C213.109 219.6 210.167 218.979 204.035 216.219C201.399 215.033 197.564 212.989 196.953 211.151C196.337 209.298 198.032 206.494 202.625 203.102C207.561 199.455 209.405 197.214 208.481 194.007C207.827 191.735 205.939 189.948 202.899 186.679C201.639 185.323 197.217 181.008 197.636 179.009C198.208 176.277 203.715 175.545 207.147 174.462C214.533 172.132 218.71 171.967 218.71 167.046C218.71 165.778 216.194 159.543 214.165 154.267C211.64 147.704 211.118 147.4 212.069 145.425C213.127 143.228 216.027 141.334 225.312 139.282C227.761 138.74 230.181 137.451 230.246 135.295C230.347 131.965 227.752 128.819 226.141 125.093C224.436 121.151 222.403 119.111 225.048 115.31C226.319 113.484 228.907 114.69 234.863 114.263C240.753 113.84 243.659 114.063 244.767 112.864C248.256 109.088 245.318 108.207 248.657 99.9735C249.8 97.1545 249.437 96.1848 254.795 98.2016C264.017 101.673 268.246 101.375 271.474 92.3978C272.833 88.6183 275.156 84.1894 277.379 83.7692C281.023 83.0805 282.994 86.0886 285.005 87.635C286.285 88.6189 291.409 92.348 292.721 92.348C296.733 92.348 297.669 89.5766 299.955 81.715C301.57 76.1578 303.825 74.0312 306.687 74.6593C309.172 75.2047 312.327 77.7731 315.472 82.0708C317.075 84.2617 320.404 86.5783 322.317 86.6609C324.694 86.7637 327.763 84.5563 332.273 78.6236C333.756 76.7911 335.953 73.6056 337.56 73.1058Z" fill="#FCF9F6" stroke="#FCF9F6"/>
</g>
<g id="gear1">
<path id="path116" d="M118.929 127.474C113.301 127.474 111.12 127.731 110.446 128.543C109.958 129.13 109.252 132.713 108.416 137.538C108.416 137.538 107.754 143.474 107.04 146.042C106.723 147.181 105.601 147.37 103.127 148.497C101.747 149.125 98.9248 151.006 97.425 150.572C96.4274 150.283 92.8357 145.509 91.5029 144.18C89.7728 142.455 86.2145 137.901 84.5926 137.494C83.3 137.169 82.8037 137.345 78.409 139.453C74.2657 141.441 72.3144 143.871 70.9668 144.528C69.937 145.03 71.5092 148.453 73.4777 153.642C76.1065 160.57 76.8817 161.696 76.0313 162.419C72.4697 165.446 68.4764 169.109 67.0351 169.642C65.5722 170.182 58.2933 166.647 58.2933 166.647C48.7894 162.13 49.9831 162.181 47.8894 161.517C46.1059 160.95 37.3447 173.255 36.2427 176.756C35.3975 179.442 38.8418 181.326 43.3417 186.322C43.3417 186.322 48.4977 190.44 48.28 190.891C46.5714 194.432 43.6034 201.428 41.4855 204.232C40.9074 204.997 35.5359 204.843 31.4425 205.126C27.2124 205.417 23.8442 205.342 23.5083 205.882C21.8916 208.48 19.2649 223.686 19.7822 223.975C26.1883 227.552 35.9877 231.187 36.1307 231.833C36.7842 234.784 36.9107 242.905 36.1195 243.233C33.7036 244.233 31.6547 244.747 27.7792 245.843C23.9037 246.94 20.1988 247.889 20.122 248.3C19.8438 249.786 21.498 264.073 22.3909 268.382C22.5518 269.158 27.8106 268.679 30.3296 268.808C32.561 268.922 35.8429 268.34 39.0801 268.5C39.7837 268.535 41.3602 274.194 42.1304 276.288C42.9073 278.4 44.6283 281.99 43.981 282.573C42.2205 284.159 39.0524 286.948 37.1376 288.912C34.409 291.712 31.4322 294.637 31.7802 295.455C33.4149 299.301 38.0384 307.096 39.7356 308.693C40.1469 309.08 49.7517 305.103 54.6214 303.114C55.3183 302.829 63.7888 310.061 63.5498 310.595C62.6639 312.572 61.331 314.84 59.8838 317.675C56.5544 324.196 55.7373 326.111 56.2588 326.901C58.6886 330.585 65.756 335.179 69.2285 337.469C69.8278 337.864 72.0616 335.801 77.2765 329.791C80.5858 325.977 83.605 322.354 84.295 322.431C85.6315 322.579 87.678 322.934 91.8205 324.727C93.6933 325.537 96.5166 326.452 99.1219 328.704C99.7153 329.217 96.5104 345.285 96.251 349.912C96.2171 350.516 100.91 352.467 102.793 352.97C105.376 353.661 112.386 355.26 112.754 354.463C113.892 351.998 115.136 349.138 116.63 345.289C117.344 343.449 120.314 332.839 120.657 332.843C128.327 332.928 132.744 333.455 132.838 334.181C133.505 339.319 137.867 354.499 138.47 355.103C139.215 355.851 141.712 356.337 146.27 356.621C148.865 356.167 155.464 356.124 155.876 354.934C158.438 346.599 157.2 332.267 158.835 331.831C162.329 330.899 168.031 328.121 168.448 328.795C170.234 331.683 173.545 335.421 175.802 338.821C179.939 345.051 182.853 348.192 183.936 347.703C192.426 343.868 200.173 339.324 199.477 338.16C197.683 335.159 194.439 327.043 193.478 324.905C192.167 321.987 189.688 317.462 190.091 316.945C192.434 313.945 200.62 306.714 201.252 307.12C204.626 309.285 204.82 308.715 208.134 310.852C216.005 315.929 218.355 316.115 218.665 315.651C222.085 310.522 229.352 299.998 228.415 298.901C224.556 294.384 216.048 286.339 216.682 285.535C218.32 283.455 220.344 278.883 221.746 276.477C221.796 275.656 222.807 275.043 221.953 273.328C219.589 278.072 218.126 281.155 215.301 285.336C214.898 285.933 216.811 288.292 219.405 290.738C222.205 293.379 227.385 299.208 227.385 299.794C227.385 300.69 221.937 309.616 217.923 314.532C217.186 315.435 206.481 309.131 201.287 305.395C200.507 304.834 192.765 311.799 188.888 316.003C187.834 317.224 189.373 317.724 193.537 327.472C195.447 331.943 198.118 337.937 198.118 338.218C198.118 338.895 184.446 346.415 183.771 346.415C182.927 346.415 180.39 343.079 176.843 337.55C176.044 336.305 174.224 334.316 169.032 327.156C168.479 326.393 162.737 329.311 157.445 330.927C156.559 331.198 156.767 335.72 156.245 343.557C155.986 347.448 155.653 349.481 154.413 354.238C154.15 355.249 140.657 356.047 140.025 354.339C137.152 346.587 135.727 341.301 133.915 333.203C133.75 332.522 122.989 331.585 119.864 331.425C119.197 331.391 116.125 342.731 115.627 343.92C113.482 349.04 113.063 349.638 111.623 353.162C111.339 353.856 105.794 352.514 103.818 351.979C100.7 351.135 97.2157 350.214 97.3775 349.205C98.3313 343.251 100.699 328.999 100.115 328.399C97.353 325.562 84.6124 320.973 83.6028 321.533C81.1165 322.911 77.9126 327.85 75.8874 329.817C72.6456 332.967 69.9633 336.447 69.4927 336.366C67.7944 336.074 58.4047 327.91 57.3012 326.775C56.7866 326.246 63.3164 314.083 64.8095 310.602C65.0282 310.093 59.5349 304.759 55.6963 302.106C54.8149 301.497 54.6843 301.798 47.6874 304.659C44.4379 305.988 40.1882 307.652 39.847 307.235C38.3008 305.344 37.6127 304.339 36.3879 301.804C35.1585 299.259 33.743 297.47 32.988 295.311C32.787 294.736 36.8064 291.148 38.559 289.292C41.0227 286.682 43.0944 284.438 44.6143 283.323C45.3553 282.78 44.7894 279.62 43.6488 276.974C40.7008 270.135 40.9642 267.667 39.2946 267.713C34.5814 267.843 23.485 268.604 23.3573 267.503C22.7438 262.215 21.4346 252.837 21.0343 249.088C20.9703 248.489 24.1671 247.612 26.5059 247.027C32.8113 245.449 32.9397 245.111 36.813 243.993C37.3333 243.842 37.6473 237.468 37.2123 231.234C37.165 230.556 26.4273 226.496 20.8807 223.695C20.0903 223.296 21.1665 218.117 21.7382 215.414C22.4434 212.081 23.2466 209.544 24.0089 206.628C24.191 205.931 27.6682 206.415 32.7197 206.102C36.5104 205.868 41.906 206.087 42.3544 205.186C43.9123 202.055 44.5578 201.783 46.5244 197.872C48.1234 194.692 49.7392 190.919 49.7392 190.367C49.7392 189.815 47.438 187.84 44.3968 185.015C37.8749 178.958 36.6951 177.894 38.7333 174.92C43.1017 168.547 46.4662 163.693 48.6117 163.693C49.6495 163.693 53.1554 165.787 57.4973 167.839C64.0135 170.919 66.2949 171.99 67.5326 171.231C70.3483 169.504 76.223 164.582 77.6781 162.346C78.1223 161.663 77.0272 159.221 75.6272 155.199C74.2272 151.177 72.0352 146.178 72.0352 145.647C72.0352 144.554 81.8737 138.602 83.9769 138.602C84.8586 138.602 88.2735 142.169 91.6496 146.602C95.1177 151.156 96.8293 152.29 97.7612 152.29C98.5389 152.29 101.557 151.022 104.123 149.587C109.35 146.664 107.983 148.528 109.748 137.293C110.36 134.512 110.606 131.593 111.975 129.095L118.807 128.834L126.471 129.198L127.191 138.104C127.674 144.078 127.307 146.108 128.504 146.693C129.977 147.412 131.97 147.206 136.498 147.808C143.49 148.739 145.531 148.878 147.251 145.519C148.592 142.9 149.46 141.158 150.79 138.558C152.119 135.958 152.685 134.22 152.878 134.246C153.432 134.32 155.92 134.543 159.949 135.368C164.336 136.266 167.487 137.056 168.426 138.063C168.903 138.575 167.03 144.517 165.991 148.192C164.295 154.192 164.465 154.082 166.125 154.564C170.67 155.882 179.239 159.64 181.016 160.112C182.181 160.421 186.96 153.871 189.209 151.881L193.531 148.058C193.531 148.058 197.909 150.871 199.111 151.877C200.314 152.883 204.955 156.221 204.956 156.491C204.956 156.76 202.803 160.256 201.873 161.387C200.943 162.517 198.27 165.511 196.631 167.348L193.575 170.253C195.216 172.348 197.303 173.184 198.253 176.524C198.253 176.524 199.205 175.889 199.243 175.333C198.199 172.722 196.658 171.847 195.337 170.2L199.044 166.401C202.705 162.649 206.523 157.513 206.523 156.341C206.523 156.009 204.039 154.062 201.005 152.015C197.971 149.967 194.97 147.686 194.335 146.944C192.775 145.123 190.898 149.105 186.192 153.437C182.959 156.414 182.377 157.617 180.264 158.883L174.809 156.609C172.354 155.586 167.121 153.716 166.56 153.716C165.831 153.716 167.502 149.402 167.877 148.233C169.105 144.411 170.124 139.134 170.124 138.316C170.124 136.745 170.104 135.176 161.124 133.784C161.124 133.784 154.701 132.356 152.341 132.423C151.581 132.444 151.239 134.421 151.239 134.421C149.691 138.278 148.887 139.803 147.655 143C145.457 148.701 143.516 147.482 134.676 146.794C130.137 146.442 129.5 146.253 128.922 145.698C128.49 145.282 128.179 136.847 128.179 136.847C127.878 125.93 129.229 127.474 118.929 127.474Z" fill="#FCF9F6" stroke="#FCF9F6"/>
<path id="path107" d="M128.132 195.27C117.401 194.903 107.653 199.233 97.6201 208.607C92.7932 213.117 92.0302 214.167 89.8777 219.266C83.7591 233.76 83.4095 249.217 88.9732 260.251C94.4459 271.105 104.245 282.571 120.197 285.704C131.63 287.949 152.296 284.981 161.24 278.402C167.89 273.509 173.242 262.632 174.745 250.019C175.54 243.349 174.858 236.286 172.768 229.548C168.656 216.294 161.979 204.916 148.468 198.969C143.486 196.776 131.709 195.393 128.132 195.27ZM126.454 195.952C136.854 196.246 150.756 197.882 161.214 208.47C167.368 214.7 170.643 224.775 172.757 231.454C174.688 237.556 174.305 251.031 172.48 258.289C168.51 274.075 159.438 281.233 145.182 284.256C137.121 285.966 124.854 287.221 115.134 283.459C105.217 279.621 99.2332 274.52 94.8156 268.346C90.1187 261.783 85.0421 249.468 85.8749 240.049C86.4173 233.914 89.1017 221.362 93.0027 215.328C96.5608 209.823 105.11 202.98 110.133 200.19C114.95 197.514 121.194 195.803 126.454 195.952Z" fill="#FCF9F6" stroke="#FCF9F6" stroke-width="0.887714"/>
<path id="path117" d="M127.823 189.583C115.729 189.169 104.741 194.045 93.4327 204.599C87.9922 209.676 87.1323 210.858 84.7062 216.599C77.8097 232.916 77.4157 250.319 83.6866 262.742C89.855 274.961 100.9 287.871 118.88 291.398C131.766 293.926 155.059 290.584 165.14 283.176C172.636 277.668 178.668 265.422 180.362 251.222C181.258 243.712 180.49 235.76 178.134 228.175C173.499 213.252 165.973 200.443 150.745 193.747C145.129 191.279 131.855 189.721 127.823 189.583ZM125.932 190.35C137.654 190.682 153.323 192.524 165.111 204.444C172.048 211.458 175.739 222.801 178.121 230.32C180.298 237.191 179.866 252.362 177.809 260.533C173.334 278.306 163.11 286.364 147.041 289.768C137.955 291.693 124.129 293.106 113.173 288.87C101.996 284.549 95.2508 278.806 90.2716 271.856C84.9777 264.466 79.2558 250.602 80.1945 239.997C80.8058 233.091 83.8314 218.959 88.2283 212.164C92.2388 205.967 101.875 198.263 107.536 195.121C112.965 192.109 120.004 190.182 125.932 190.35Z" fill="#FCF9F6" stroke="#FCF9F6"/>
</g>
<path id="star5" d="M321.999 202.933C316.728 200.304 316.685 200.295 317.297 201.951C318.194 204.379 317.511 205.268 316.547 202.927C316.122 201.894 315.625 201.141 315.442 201.253C315.259 201.366 314.031 203.424 312.713 205.828C311.395 208.231 310.215 210.26 310.091 210.337C309.459 210.725 310.602 206.961 312.034 203.934L313.66 200.498L311.911 200.593L310.162 200.689L311.91 199.588L313.658 198.488L310.945 196.822C307.495 194.704 304.551 192.331 305.376 192.333C305.726 192.334 307.903 193.344 310.216 194.577C314.378 196.796 314.415 196.803 313.856 195.199C312.95 192.598 313.745 192.031 314.763 194.551L315.637 196.714L317.27 194.053C318.168 192.589 319.745 190.278 320.774 188.916C322.357 186.82 322.6 186.634 322.355 187.701C322.197 188.395 321.117 190.768 319.956 192.974L317.845 196.986L319.534 196.839L321.222 196.691L319.804 197.786C319.023 198.389 318.444 198.978 318.517 199.096C318.589 199.214 320.543 200.481 322.858 201.913C325.174 203.344 327.125 204.756 327.194 205.051C327.262 205.345 324.925 204.392 321.999 202.933Z" fill="#FCF9F6" stroke="#FCF9F6" stroke-width="0.753989"/>
<path id="star4" d="M341.222 202.918C341.426 202.511 341.978 200.675 342.45 198.838C344.105 192.393 346.657 189.21 351.486 187.57C353.358 186.934 353.671 186.69 352.78 186.562C347.319 185.78 343.578 182.339 342.209 176.839C341.188 172.737 340.231 171.687 340.335 174.782C340.431 177.629 339.627 180.152 337.865 182.533C336.725 184.073 335.488 184.848 332.431 185.936C330.254 186.711 328.513 187.475 328.562 187.635C328.611 187.794 329.862 187.996 331.342 188.082C332.822 188.169 334.954 188.711 336.079 189.287C339.387 190.981 340.415 193.094 340.646 198.669C340.759 201.412 341.018 203.324 341.222 202.918ZM339.916 190.156C339.418 189.577 338.149 188.645 337.095 188.085L335.178 187.067L336.932 185.63C337.896 184.84 339.252 183.126 339.945 181.821C341.089 179.668 341.244 179.554 341.636 180.584C342.467 182.766 344.393 185.003 346.321 186.028L348.266 187.061L346.36 188.397C345.269 189.16 343.912 190.751 343.188 192.114L341.923 194.495L341.372 192.852C341.069 191.949 340.414 190.735 339.916 190.156Z" fill="#FCF9F6" stroke="#FCF9F6" stroke-width="0.768208"/>
<path id="star3" d="M327.047 180.528C324.495 177.226 324.483 177.198 325.718 177.395C327.529 177.685 328.053 177.087 326.293 176.74C325.517 176.586 324.925 176.345 324.978 176.202C325.032 176.06 326.293 174.923 327.781 173.677C329.27 172.431 330.518 171.332 330.554 171.235C330.737 170.742 328.278 172.054 326.372 173.465L324.208 175.068L324.034 173.839L323.86 172.611L323.335 173.977L322.811 175.343L321.281 173.687C319.334 171.581 317.28 169.861 317.395 170.435C317.444 170.677 318.445 172.052 319.62 173.489C321.735 176.076 321.744 176.1 320.553 175.933C318.621 175.661 318.336 176.292 320.228 176.652L321.851 176.962L320.226 178.463C319.333 179.288 317.943 180.702 317.139 181.604C315.9 182.992 315.804 183.187 316.512 182.87C316.972 182.664 318.473 181.588 319.846 180.478L322.344 178.459L322.473 179.653L322.603 180.846L323.169 179.71C323.48 179.085 323.81 178.601 323.902 178.635C323.994 178.669 325.143 179.853 326.457 181.265C327.77 182.677 329.019 183.838 329.233 183.846C329.447 183.853 328.464 182.36 327.047 180.528Z" fill="#FCF9F6" stroke="#FCF9F6" stroke-width="0.534093"/>
<path id="star2" d="M150.559 243.365C150.792 242.974 151.475 241.183 152.079 239.385C154.198 233.077 156.974 230.088 161.909 228.801C163.822 228.303 164.152 228.082 163.272 227.89C157.882 226.715 154.401 223.012 153.433 217.426C152.712 213.261 151.835 212.145 151.714 215.239C151.603 218.086 150.618 220.544 148.689 222.79C147.44 224.244 146.15 224.927 143.022 225.791C140.795 226.406 139.003 227.042 139.04 227.205C139.077 227.367 140.31 227.659 141.78 227.853C143.25 228.046 145.337 228.742 146.417 229.398C149.594 231.327 150.467 233.508 150.292 239.086C150.206 241.83 150.326 243.756 150.559 243.365ZM150.182 230.543C149.727 229.929 148.528 228.908 147.518 228.273L145.68 227.118L147.533 225.812C148.552 225.094 150.029 223.482 150.814 222.232C152.111 220.167 152.275 220.065 152.591 221.12C153.261 223.356 155.02 225.728 156.869 226.89L158.734 228.061L156.736 229.255C155.593 229.937 154.124 231.425 153.303 232.732L151.868 235.016L151.438 233.337C151.202 232.414 150.636 231.156 150.182 230.543Z" fill="#FCF9F6" stroke="#FCF9F6" stroke-width="0.768208"/>
<path id="star1" d="M131.779 208.729C133.255 212.633 133.273 212.658 133.751 211.502C134.453 209.808 135.237 209.675 134.611 211.356C134.335 212.097 134.231 212.728 134.38 212.758C134.529 212.787 136.158 212.308 138 211.692C139.841 211.077 141.431 210.59 141.532 210.61C142.048 210.712 139.643 212.119 137.442 213.003L134.943 214.007L135.898 214.799L136.854 215.591L135.415 215.323L133.977 215.054L134.586 217.225C135.361 219.986 135.75 222.636 135.322 222.238C135.14 222.069 134.494 220.497 133.885 218.743C132.789 215.586 132.773 215.566 132.292 216.668C131.511 218.456 130.825 218.369 131.509 216.568L132.095 215.024L129.965 215.622C128.794 215.95 126.862 216.393 125.672 216.606C123.841 216.934 123.625 216.914 124.266 216.477C124.682 216.193 126.385 215.479 128.05 214.89L131.078 213.82L130.129 213.084L129.18 212.348L130.445 212.461C131.14 212.524 131.725 212.496 131.744 212.4C131.763 212.304 131.357 210.705 130.842 208.846C130.327 206.988 129.992 205.316 130.098 205.129C130.203 204.943 130.96 206.563 131.779 208.729Z" fill="#FCF9F6" stroke="#FCF9F6" stroke-width="0.534093"/>
</g>
</svg>
