<svg width="464" height="435" viewBox="0 0 464 435" fill="none" xmlns="http://www.w3.org/2000/svg">
<ellipse cx="105.5" cy="157" rx="81.5" ry="80" fill="#F3A933"/>
<ellipse cx="295.5" cy="173.5" rx="167.5" ry="173.5" fill="#6C9289"/>
<ellipse cx="129.567" cy="311.022" rx="128.915" ry="123.142" fill="#EC9A8D"/>
<path d="M329.597 8.09134C322.756 8.09134 320.105 8.40325 319.286 9.38997C318.693 10.1043 317.835 14.4585 316.818 20.3244C316.818 20.3244 316.013 27.5394 315.145 30.6611C314.76 32.0459 313.396 32.2753 310.389 33.6445C308.712 34.4083 305.281 36.6949 303.458 36.1668C302.246 35.8156 297.88 30.0133 296.26 28.398C294.157 26.3013 289.832 20.7651 287.86 20.2703C286.289 19.8759 285.686 20.089 280.344 22.6522C275.307 25.0688 272.935 28.0225 271.297 28.8204C270.046 29.4302 271.957 33.592 274.349 39.8984C277.545 48.3205 278.487 49.6891 277.454 50.5676C273.124 54.2471 268.27 58.6999 266.518 59.3472C264.74 60.0041 255.892 55.7068 255.892 55.7068C244.34 50.2161 245.791 50.2786 243.246 49.4708C241.078 48.7827 230.429 63.7395 229.089 67.9955C228.062 71.2594 232.248 73.5495 237.718 79.6227C237.718 79.6227 243.985 84.6281 243.721 85.1766C241.644 89.4804 238.036 97.9842 235.462 101.393C234.759 102.323 228.23 102.136 223.254 102.479C218.112 102.833 214.018 102.743 213.61 103.399C211.645 106.557 208.452 125.04 209.081 125.391C216.867 129.74 228.779 134.158 228.953 134.943C229.747 138.53 229.901 148.402 228.939 148.8C226.003 150.015 223.512 150.64 218.801 151.973C214.091 153.306 209.587 154.46 209.494 154.959C209.156 156.765 211.166 174.132 212.252 179.369C212.447 180.313 218.84 179.731 221.901 179.887C224.614 180.025 228.603 179.319 232.538 179.513C233.393 179.555 235.309 186.434 236.246 188.979C237.19 191.546 239.282 195.911 238.495 196.62C236.355 198.548 232.504 201.937 230.177 204.325C226.86 207.729 223.242 211.283 223.665 212.278C225.652 216.953 231.272 226.427 233.335 228.369C233.835 228.839 245.51 224.005 251.429 221.587C252.276 221.242 262.572 230.032 262.282 230.681C261.205 233.084 259.585 235.841 257.826 239.287C253.779 247.214 252.785 249.541 253.419 250.502C256.373 254.979 264.963 260.564 269.184 263.347C269.913 263.827 272.628 261.32 278.967 254.014C282.99 249.378 286.66 244.975 287.498 245.068C289.123 245.248 291.61 245.68 296.646 247.859C298.922 248.844 302.354 249.955 305.521 252.693C306.242 253.316 302.347 272.847 302.031 278.472C301.99 279.206 307.695 281.578 309.983 282.19C313.123 283.03 321.644 284.974 322.091 284.005C323.474 281.008 324.987 277.532 326.803 272.853C327.671 270.617 331.28 257.719 331.698 257.724C341.021 257.828 346.39 258.468 346.504 259.351C347.315 265.596 352.617 284.048 353.349 284.783C354.255 285.691 357.291 286.282 362.832 286.627C365.986 286.076 374.007 286.023 374.507 284.577C377.622 274.445 376.117 257.025 378.104 256.495C382.352 255.361 389.282 251.985 389.789 252.804C391.961 256.315 395.985 260.858 398.729 264.99C403.757 272.564 407.299 276.382 408.616 275.787C418.936 271.126 428.352 265.602 427.507 264.187C425.326 260.539 421.382 250.675 420.214 248.075C418.621 244.528 415.607 239.028 416.098 238.4C418.945 234.753 428.895 225.963 429.663 226.457C433.765 229.089 434.001 228.396 438.029 230.994C447.597 237.165 450.453 237.391 450.83 236.827C454.987 230.592 463.82 217.801 462.681 216.467C457.991 210.976 447.649 201.197 448.419 200.219C450.41 197.691 452.871 192.133 454.575 189.209C454.635 188.211 455.865 187.467 454.827 185.382C451.953 191.148 450.175 194.896 446.741 199.978C446.251 200.704 448.577 203.571 451.729 206.544C455.132 209.755 461.429 216.84 461.429 217.552C461.429 218.641 454.807 229.491 449.928 235.467C449.032 236.564 436.02 228.902 429.706 224.361C428.758 223.679 419.347 232.144 414.635 237.255C413.353 238.739 415.225 239.347 420.286 251.196C422.607 256.631 425.854 263.917 425.854 264.258C425.854 265.08 409.236 274.222 408.416 274.222C407.389 274.222 404.305 270.167 399.993 263.446C399.022 261.933 396.81 259.515 390.499 250.812C389.826 249.885 382.847 253.43 376.414 255.395C375.337 255.724 375.591 261.221 374.956 270.747C374.641 275.477 374.237 277.949 372.73 283.731C372.409 284.959 356.009 285.929 355.24 283.854C351.748 274.43 350.015 268.005 347.813 258.162C347.613 257.335 334.533 256.195 330.734 256.001C329.924 255.959 326.189 269.743 325.583 271.189C322.976 277.412 322.466 278.139 320.716 282.422C320.372 283.266 313.631 281.635 311.23 280.985C307.439 279.959 303.204 278.84 303.401 277.612C304.56 270.376 307.438 253.052 306.728 252.322C303.371 248.874 287.884 243.296 286.657 243.977C283.635 245.652 279.74 251.655 277.279 254.047C273.338 257.875 270.078 262.105 269.506 262.006C267.441 261.651 256.028 251.728 254.686 250.348C254.061 249.705 261.998 234.921 263.813 230.69C264.079 230.071 257.402 223.587 252.736 220.363C251.664 219.623 251.505 219.987 243 223.466C239.051 225.082 233.885 227.103 233.47 226.596C231.591 224.299 230.754 223.076 229.266 219.995C227.771 216.902 226.051 214.727 225.133 212.103C224.888 211.404 229.774 207.043 231.905 204.786C234.899 201.615 237.417 198.886 239.265 197.531C240.166 196.871 239.478 193.03 238.091 189.813C234.508 181.501 234.828 178.5 232.799 178.556C227.07 178.714 213.582 179.639 213.426 178.301C212.681 171.873 211.089 160.475 210.603 155.917C210.525 155.188 214.411 154.123 217.254 153.412C224.918 151.494 225.074 151.083 229.782 149.723C230.415 149.541 230.796 141.792 230.268 134.215C230.21 133.391 217.158 128.456 210.416 125.051C209.455 124.565 210.763 118.27 211.458 114.986C212.315 110.934 213.292 107.85 214.218 104.305C214.44 103.458 218.666 104.047 224.807 103.667C229.414 103.381 235.973 103.647 236.518 102.552C238.412 98.747 239.196 98.4165 241.587 93.6621C243.53 89.7963 245.494 85.21 245.494 84.5394C245.494 83.8687 242.697 81.4679 239.001 78.0344C231.073 70.6715 229.639 69.3777 232.116 65.7633C237.426 58.0168 241.516 52.1167 244.124 52.1167C245.385 52.1167 249.647 54.6618 254.925 57.1564C262.845 60.9001 265.619 62.2014 267.123 61.2786C270.546 59.1793 277.687 53.1966 279.455 50.4787C279.995 49.6489 278.664 46.6803 276.962 41.7913C275.261 36.9024 272.596 30.8262 272.596 30.181C272.596 28.8526 284.555 21.6169 287.112 21.6169C288.183 21.6169 292.334 25.9536 296.438 31.3422C300.654 36.8774 302.734 38.2559 303.867 38.2559C304.812 38.2559 308.481 36.7142 311.6 34.9698C317.954 31.4168 316.292 33.6824 318.437 20.0268C319.181 16.6455 319.48 13.0973 321.144 10.0612L329.449 9.74389L338.765 10.186L339.64 21.0126C340.227 28.2731 339.781 30.7413 341.236 31.4518C343.026 32.326 345.449 32.0754 350.952 32.8077C359.452 33.9388 361.933 34.1083 364.024 30.0249C365.654 26.8418 366.709 24.7238 368.325 21.5634C369.941 18.403 370.629 16.2906 370.864 16.3222C371.537 16.4128 374.561 16.6837 379.459 17.6865C384.79 18.778 388.621 19.7376 389.762 20.9622C390.343 21.5849 388.066 28.8078 386.803 33.2747C384.742 40.5676 384.947 40.4345 386.966 41.0196C392.49 42.6214 402.906 47.1897 405.066 47.763C406.482 48.1388 412.291 40.1778 415.025 37.7588L420.278 33.1109C420.278 33.1109 425.6 36.531 427.061 37.7536C428.523 38.9761 434.165 43.0342 434.166 43.3615C434.167 43.6889 431.549 47.9386 430.419 49.313C429.288 50.6873 426.039 54.326 424.047 56.5594L420.332 60.0904C422.327 62.6368 424.864 63.6532 426.018 67.7124C426.018 67.7124 427.175 66.9405 427.222 66.2657C425.952 63.0909 424.079 62.0279 422.474 60.0259L426.98 55.4084C431.429 50.8479 436.07 44.6042 436.07 43.1794C436.07 42.7759 433.052 40.4094 429.364 37.9208C425.676 35.4322 422.028 32.6594 421.256 31.7576C419.36 29.5434 417.078 34.3841 411.358 39.6502C407.428 43.2691 406.721 44.7314 404.152 46.2695L397.521 43.5054C394.537 42.2616 388.176 39.9895 387.494 39.9895C386.609 39.9895 388.639 34.7446 389.095 33.3238C390.587 28.6779 391.826 22.2636 391.826 21.2702C391.826 19.3602 391.803 17.4528 380.887 15.761C380.887 15.761 373.079 14.0256 370.211 14.1063C369.287 14.1323 368.871 16.5349 368.871 16.5349C366.99 21.2237 366.012 23.0769 364.514 26.9634C361.843 33.8935 359.484 32.4107 348.738 31.5756C343.221 31.1467 342.446 30.918 341.744 30.2424C341.219 29.7369 340.841 19.4842 340.841 19.4842C340.474 6.21405 342.117 8.09134 329.597 8.09134Z" fill="#FCF9F6" stroke="#FCF9F6"/>
<path d="M340.784 90.4998C327.74 90.0533 315.891 95.3169 303.695 106.712C297.828 112.194 296.901 113.47 294.284 119.667C286.847 137.285 286.422 156.074 293.185 169.486C299.837 182.679 311.748 196.617 331.138 200.425C345.036 203.154 370.156 199.547 381.027 191.549C389.111 185.601 395.617 172.38 397.444 157.048C398.41 148.941 397.581 140.355 395.041 132.166C390.042 116.054 381.926 102.225 365.503 94.9959C359.447 92.3305 345.131 90.6486 340.784 90.4998ZM338.744 91.3282C351.386 91.6862 368.283 93.6748 380.996 106.545C388.477 114.118 392.457 126.364 395.027 134.482C397.374 141.9 396.909 158.279 394.69 167.102C389.864 186.29 378.838 194.99 361.509 198.666C351.71 200.744 336.799 202.27 324.984 197.696C312.93 193.031 305.656 186.83 300.286 179.326C294.577 171.348 288.406 156.379 289.419 144.929C290.078 137.473 293.341 122.216 298.083 114.88C302.408 108.19 312.799 99.8716 318.905 96.4795C324.76 93.2271 332.351 91.1472 338.744 91.3282Z" fill="#FCF9F6" stroke="#FCF9F6" stroke-width="0.887714"/>
<path d="M340.409 83.5865C325.707 83.0837 312.351 89.0098 298.606 101.838C291.992 108.01 290.947 109.447 287.998 116.425C279.615 136.26 279.136 157.414 286.759 172.514C294.257 187.367 307.682 203.059 329.537 207.346C345.201 210.419 373.515 206.357 385.768 197.353C394.88 190.657 402.212 175.772 404.272 158.51C405.361 149.382 404.427 139.716 401.563 130.496C395.929 112.357 386.781 96.7868 368.27 88.6484C361.445 85.6476 345.309 83.754 340.409 83.5865ZM338.11 84.5191C352.359 84.9221 371.404 87.161 385.733 101.651C394.165 110.177 398.651 123.964 401.547 133.104C404.193 141.456 403.668 159.896 401.168 169.829C395.729 191.432 383.3 201.228 363.769 205.365C352.723 207.705 335.918 209.423 322.601 204.274C309.014 199.021 300.816 192.04 294.763 183.592C288.328 174.61 281.373 157.757 282.514 144.866C283.257 136.472 286.935 119.294 292.279 111.035C297.154 103.502 308.867 94.1378 315.749 90.3188C322.348 86.657 330.904 84.3153 338.11 84.5191Z" fill="#FCF9F6" stroke="#FCF9F6"/>
<path d="M359.258 139.61C364.53 136.981 364.572 136.972 363.961 138.628C363.064 141.056 363.747 141.946 364.711 139.604C365.136 138.571 365.633 137.818 365.816 137.93C365.999 138.043 367.227 140.101 368.544 142.505C369.862 144.908 371.042 146.937 371.167 147.014C371.799 147.402 370.656 143.638 369.224 140.611L367.598 137.175L369.347 137.27L371.096 137.366L369.348 136.265L367.6 135.165L370.313 133.499C373.763 131.381 376.707 129.008 375.882 129.01C375.532 129.011 373.354 130.021 371.042 131.254C366.88 133.474 366.843 133.48 367.402 131.876C368.307 129.275 367.513 128.708 366.495 131.228L365.621 133.391L363.988 130.73C363.089 129.266 361.513 126.955 360.484 125.593C358.901 123.497 358.658 123.311 358.902 124.378C359.061 125.072 360.141 127.445 361.302 129.651L363.412 133.663L361.724 133.516L360.036 133.368L361.454 134.463C362.235 135.066 362.814 135.655 362.741 135.773C362.669 135.891 360.715 137.158 358.399 138.59C356.084 140.021 354.133 141.433 354.064 141.728C353.995 142.022 356.333 141.069 359.258 139.61Z" fill="#FCF9F6" stroke="#FCF9F6" stroke-width="0.753989"/>
<path d="M340.036 139.595C339.832 139.188 339.28 137.353 338.808 135.515C337.152 129.07 334.601 125.887 329.772 124.247C327.9 123.611 327.587 123.367 328.478 123.239C333.939 122.457 337.68 119.017 339.049 113.516C340.07 109.414 341.027 108.364 340.922 111.459C340.827 114.306 341.631 116.829 343.393 119.21C344.533 120.75 345.77 121.525 348.827 122.613C351.004 123.388 352.745 124.153 352.696 124.312C352.647 124.471 351.396 124.673 349.916 124.76C348.436 124.846 346.304 125.388 345.179 125.964C341.871 127.658 340.842 129.771 340.612 135.346C340.499 138.089 340.24 140.001 340.036 139.595ZM341.342 126.833C341.839 126.254 343.109 125.323 344.163 124.763L346.079 123.745L344.326 122.307C343.362 121.517 342.006 119.803 341.313 118.499C340.169 116.345 340.013 116.231 339.621 117.261C338.791 119.443 336.865 121.681 334.936 122.705L332.992 123.738L334.898 125.074C335.989 125.837 337.346 127.428 338.07 128.791L339.335 131.173L339.886 129.529C340.189 128.626 340.844 127.412 341.342 126.833Z" fill="#FCF9F6" stroke="#FCF9F6" stroke-width="0.768208"/>
<path d="M354.211 117.205C356.763 113.903 356.775 113.875 355.54 114.072C353.729 114.362 353.205 113.764 354.965 113.417C355.741 113.264 356.333 113.022 356.28 112.879C356.226 112.737 354.965 111.6 353.476 110.354C351.988 109.108 350.74 108.009 350.704 107.912C350.521 107.419 352.979 108.731 354.886 110.142L357.05 111.745L357.224 110.517L357.398 109.288L357.923 110.654L358.447 112.02L359.977 110.364C361.923 108.258 363.977 106.538 363.862 107.112C363.814 107.354 362.813 108.729 361.638 110.166C359.523 112.753 359.513 112.777 360.705 112.61C362.637 112.338 362.921 112.969 361.03 113.329L359.407 113.639L361.032 115.14C361.925 115.966 363.314 117.379 364.119 118.281C365.358 119.669 365.454 119.864 364.746 119.547C364.285 119.341 362.785 118.265 361.412 117.155L358.914 115.136L358.784 116.33L358.655 117.523L358.089 116.387C357.777 115.762 357.448 115.278 357.356 115.312C357.264 115.346 356.114 116.53 354.801 117.942C353.488 119.354 352.239 120.516 352.025 120.523C351.81 120.53 352.794 119.037 354.211 117.205Z" fill="#FCF9F6" stroke="#FCF9F6" stroke-width="0.534093"/>
<path d="M126.541 198.52C121.884 198.402 115.518 200.284 112.099 201.631C106.516 203.831 99.5618 211.105 96.6523 217.384C94.5816 221.853 94.7363 228.029 95.6301 232.335C97.672 242.17 105.529 249.943 115.588 252.521C117.202 252.934 120.725 253.608 124.186 253.511C129.732 253.357 131.542 252.343 134.511 251.227C142.966 248.047 147.786 240.756 149.196 233.107C151.102 222.758 148.563 212.128 142.737 206.065C138.318 201.466 131.278 198.639 126.541 198.52ZM126.124 199.324C130.181 199.547 132.18 200.228 135.585 201.91C143.089 205.619 146.631 212.079 148.196 219.588C149.074 223.796 148.855 231.526 147.855 234.944C145.633 242.546 141.172 247.639 132.1 251.247C128.492 252.682 122.115 253.218 116.378 251.758C110 250.134 102.391 245.388 99.2758 239.543C96.1827 233.74 95.3274 226.407 96.404 220.93C97.2635 216.558 104.871 203.757 115.878 201.117C118.905 200.391 122.992 199.375 126.124 199.324Z" fill="#FCF9F6" stroke="#FCF9F6"/>
<path d="M126.345 193.534C125.231 193.403 122.852 193.392 121.498 193.584C116.016 194.359 112.183 195.829 107.262 199.041C101.756 202.635 99.354 205.004 96.2502 209.541C90.5931 217.81 89.3523 224.481 91.1441 233.355C93.2571 243.819 96.1806 247.335 100.912 251.949C105.104 256.038 110.522 258.836 116.03 259.757C121.594 260.687 129.47 259.759 135.719 257.436C147.265 253.145 151.48 248.558 155.394 236.019C158.139 227.224 157.712 219.898 154.054 213.043C150.116 205.661 145.788 201.191 137.192 196.941C131.882 194.317 130.244 193.99 126.345 193.534ZM124.043 194.418C126.745 194.366 131.39 194.957 136.542 197.458C141.695 199.959 147.354 204.371 149.785 207.695C152.544 211.465 155.464 217.327 156.202 221.459C157.258 227.376 155.129 236.891 150.984 244.778C148.024 250.41 143.249 253.697 132.905 257.223C129.502 258.383 127.405 258.722 122.726 258.866C113.124 259.163 107.44 257.041 101.358 250.889C96.8787 246.358 95.0312 244.215 93.1496 237.492C90.4619 227.889 90.3327 223.187 94.3496 214.857C97.1822 208.983 99.9082 205.545 104.97 201.783C112.695 196.043 119.121 194.515 124.043 194.418Z" fill="#FCF9F6" stroke="#FCF9F6"/>
<path d="M105.203 158.65C99.9956 160.036 87.2917 166.81 81.358 172.408C73.1154 180.185 65.3924 188.409 60.8429 197.447C50.9664 217.067 53.5625 243.205 67.4424 263.873C73.2399 272.506 85.2016 282.383 96.322 287.722C101.93 290.414 106.012 291.578 112.112 292.222C114.414 292.465 122.106 292.58 129.203 292.736C138.218 292.933 147.011 290.965 156.986 286.54C172.675 279.579 183.074 270.858 190.496 252.798C193.776 244.816 195.318 237.79 195.318 227.324C195.318 212.744 193.35 202.621 188.578 192.655C183.555 182.163 179.123 175.435 165.693 166.816C151.23 157.533 141.149 156.125 130.847 155.841C121.122 155.573 114.657 156.134 105.203 158.65ZM141.256 158.08C147.738 159.429 151.075 160.029 160.914 165.58C168.833 170.048 175.229 174.288 180.771 181.543C189.039 192.363 194.29 207.904 194.308 226.484C194.318 237.566 193.334 242.18 190.047 251.125C185.672 263.031 176.581 275.308 164.172 281.981C153.403 287.771 143.49 290.731 135.111 291.248C121.28 292.103 108.01 291.248 98.2894 287.183C91.1135 284.182 80.5096 276.44 73.7421 269.672C62.3002 258.231 56.5299 241.815 55.8993 224.795C55.4764 213.382 57.1006 206.91 61.8139 197.751C67.498 186.704 77.6818 175.925 89.8498 167.587C99.9185 160.688 107.772 157.439 121.815 156.969C127.731 156.77 135.399 157.001 141.256 158.08Z" fill="#FCF9F6" stroke="#FCF9F6"/>
<path d="M131.232 131.005C129.776 131.071 128.401 133.533 126.318 135.987C119.599 143.899 119.138 141.942 114.795 137.272C113.391 135.762 111.29 133.854 109.981 133.16C107.862 132.036 107.421 131.972 105.946 132.583C104.697 133.1 104.074 133.881 103.412 135.758C102.929 137.128 102.108 139.235 101.749 140.493C100.362 145.355 99.9298 145.48 98.0213 145.48C97.5881 145.48 94.9827 144.144 93.5957 142.859C90.3947 139.894 89.883 139.146 87.2756 139.146C84.3631 139.146 83.5826 141.563 81.7663 145.555C80.7119 147.872 79.5429 150.077 78.6322 150.593C77.2297 151.387 75.2161 151.505 71.1744 150.237C69.3979 149.68 66.5878 148.667 65.7576 148.826C63.8636 149.188 63.8932 152.127 63.0857 156.054C62.0805 160.943 62.6955 161.207 55.6703 161.411C49.8942 161.579 48.4794 161.32 47.4082 162.014C45.5776 163.199 44.7077 166.78 47.7247 170.98C54.1438 179.916 48.8378 179.741 44.2877 180.567C36.5664 181.97 35.5916 183.342 38.806 193.071C40.6275 198.584 42.9699 202.174 41.8742 203.12C40.5786 204.238 37.4338 205.245 34.4798 205.993C31.9966 206.622 28.4509 207.373 27.5349 208.461C25.2792 211.142 27.6698 212.794 32.2886 217.996C35.6468 221.779 36.0309 223.343 32.2392 226.145C28.2784 229.07 25.7044 231.477 26.0273 233.53C26.3597 235.645 27.6471 236.154 32.4176 238.473C38.8246 241.589 42.7363 242.236 36.2846 246.721C35.1312 247.523 32.9415 248.885 32.104 249.72C30.928 250.892 30.5364 252.189 31.543 254.051C32.2025 255.271 34.6071 256.063 36.2931 257.329C37.7163 258.397 39.3997 259.014 39.7964 259.933C40.0135 260.436 39.2233 262.145 38.3428 263.889C36.4008 267.736 36.1801 270.151 37.8196 271.635C38.7401 272.468 39.824 273.252 43.4949 273.252C49.0962 273.204 48.2747 272.61 46.6529 277.59C45.1167 282.296 44.959 285.098 46.1364 286.779C47.3345 288.49 50.35 289.141 54.1746 288.514C59.7124 287.607 59.3752 287.312 58.9526 292.714C58.4887 298.644 59.256 300.595 62.2718 301.161C63.8454 301.456 65.7528 301.258 68.4395 299.933C72.8996 297.734 75.2971 296.487 77.3957 297.572C79.9495 298.893 79.4484 301.131 79.7595 306.806C80.0783 312.621 80.8423 315.079 83.3333 316.102C85.8691 317.143 88.1126 317.164 92.029 314.011C94.003 312.422 97.1375 310.193 98.214 309.838C101.027 308.909 100.979 311.055 102.58 315.879C103.49 318.621 103.683 319.323 105.378 321.481C109.101 326.218 114.559 321.251 117.912 314.879C121.195 308.64 123.734 309.891 126.206 317.177C127.994 322.447 130.307 323.878 133.004 323.878C136.908 323.878 138.829 319.361 140.617 313.988C142.723 307.66 145.697 309.173 150.223 315.78C152.836 319.594 153.801 319.592 155.634 319.592C158.314 319.592 159.881 318.153 160.53 316.941C160.818 316.402 162.072 314.77 162.102 311.711C162.181 303.669 163.647 303.096 167.515 305.923C172.908 309.865 174.841 310.3 178.117 308.303C179.993 306.375 179.677 303.438 179.573 301.604C179.285 296.555 178.932 294.952 180.247 293.767C180.718 293.343 182.093 294.154 183.731 295.242C187.112 297.487 190.066 298.449 193.122 297.441C196.127 296.449 196.741 294.597 195.08 289.27C193.77 285.071 193.366 281.472 194.013 279.784C194.279 279.092 195.686 278.408 198.363 279.108C202.096 280.086 205.001 280.115 207.009 279.033C207.709 278.656 208.535 278.241 208.664 276.495C208.804 274.581 208.01 272.805 206.335 269.181C205.212 266.751 203.988 264.974 204.238 263.244C204.343 262.522 204.705 262.144 207.289 261.242C209.363 260.518 213.356 259.898 216.156 257.748C218.071 256.278 217.57 253.496 213.8 250.761C210.62 248.453 208.711 246.617 208.711 245.867C208.711 245.501 210.066 244.943 211.631 244.354C213.178 243.771 214.484 243.073 215.572 242.542C217.234 241.731 218.702 241.346 218.731 239.485C218.759 237.677 218.068 236.247 214.021 233.789C208.696 230.554 208.766 227.951 213.755 225.097C217.785 222.791 219.161 221.663 218.95 219.463C218.797 217.864 218.5 218.074 214.519 215.005C212.673 213.582 207.37 211.254 208.019 208.549C208.262 207.536 209.669 205.905 210.969 204.275C212.028 202.947 212.724 202.095 213.622 199.932C215.642 195.07 212.517 192.831 208.404 191.238C204.33 189.66 202.59 188.266 202.26 186.54C202.11 185.754 202.451 182.404 203.008 180.072C204.46 173.995 204.791 173.437 202.568 172.508C201.546 172.081 200.748 171.829 197.818 171.866C193.873 171.915 192.804 171.58 193.12 167.922C193.244 166.486 193.581 163.743 193.741 162.396C194.191 158.636 194.532 155.639 192.617 154.973C191.157 154.466 190.529 154.327 184.129 155.766C181.919 156.263 179.594 156.662 178.922 156.494C177.513 156.143 176.999 155.02 175.691 149.817C174.717 145.943 174.249 142.274 171.188 142.198C169.976 142.168 167.847 143.122 165.793 144.044C160.313 146.504 160.241 146.491 158.39 142.614C156.199 138.023 154.733 134.49 151.976 134.497C150.33 134.5 148.19 136.32 145.397 138.064C140.332 141.225 139.413 141.52 135.255 135.093C132.867 131.402 132.659 130.941 131.232 131.005ZM131.125 132.324C132.305 131.957 133.192 133.355 133.896 134.678C136.376 139.343 139.258 141.156 140.131 141.357C141.202 141.603 143.286 140.714 145.136 139.45C147.521 137.819 150.916 135.564 151.625 135.564C153.133 135.564 153.848 136.11 155.89 139.694C156.688 141.095 158.527 145.41 159.257 145.888C160.496 146.7 162 146.796 164.572 145.384C168.314 143.33 171.106 142.94 172.198 143.406C173.607 144.007 174.137 147.139 174.657 149.113C175.724 153.17 176.881 156.875 178.532 157.279C179.48 157.511 182.034 157.122 184.349 156.519C185.35 156.259 188.995 155.21 190.285 155.426C193.74 156.003 193.641 157.725 193.249 160.915C192.842 164.234 192.184 169.031 192.611 170.656C192.998 172.124 194.954 172.657 198.229 172.66C199.78 172.663 202.373 172.72 203.017 173.839C203.636 174.914 202.657 178.752 202.133 181.287C201.841 182.699 201.643 184.768 201.527 186.411C201.404 188.137 204.927 190.593 207.336 191.364C211.656 192.746 212.869 194.286 213.559 196.234C214.133 197.855 212.539 200.686 210.984 203.047C209.57 205.192 205.895 207.28 207.509 210.734C208.063 211.918 214.294 215.677 215.653 216.74C217.257 217.996 218.215 218.619 218.084 219.766C218.024 220.29 216.418 222.685 213.286 224.309C212.101 224.924 209.846 226.053 209.348 228.547C208.933 230.623 208.905 231.34 213.707 234.612C218.565 237.922 218.878 240.062 215.079 241.795C210.77 243.76 207.923 244.147 207.791 245.767C207.676 247.175 207.952 247.514 213.133 251.729C215.241 253.444 215.967 254.02 216.129 255.535C216.295 257.089 212.774 258.588 211.627 258.948C207.154 260.35 203.688 260.834 203.321 262.499C202.822 264.764 203.812 266.065 205.826 270.109C207.744 273.962 208.953 275.52 207.492 277.836C206.519 279.379 202.696 279.296 199.987 278.734C193.285 277.341 193.625 278.538 193.037 280.495C192.623 281.874 192.927 284.1 194.121 289.072C195.502 294.826 194.585 296.933 191.134 296.933C188.917 296.933 185.435 295.271 182.685 293.182C178.002 289.622 177.567 294.058 178.531 302.342C178.971 306.128 177.765 307.247 176.887 307.682C174.781 308.727 172.896 308.59 167.59 304.711C166.429 303.863 165.349 303.352 164.124 303.466C162.964 303.574 161.161 303.939 161.15 310.354C161.146 312.952 160.533 314.978 159.82 316.328C159.238 317.429 157.33 318.449 156.041 318.592C153.717 318.851 153.222 317.812 150.074 314.241C147.306 311.101 145.974 308.923 144.277 308.923C143.996 308.923 142.698 308.962 141.798 309.719C140.624 310.706 140.141 312.097 139.357 314.729C138.573 317.362 137.383 320.286 136.21 321.273C133.982 323.148 131.653 323.382 130.163 321.487C129.024 320.04 128.185 318.872 127.449 316.923C127.26 316.423 125.875 313.648 125.48 312.723C124.833 311.206 123.936 309.373 122.012 309.373C120.023 309.373 117.88 311.648 116.3 314.765C114.07 319.166 111.547 322.164 109.123 322.164C106.42 322.164 104.734 319.072 104.442 317.533C104.317 316.876 102.959 313.952 102.395 312.111C101.225 308.291 99.7214 308.306 98.1201 308.922C95.845 309.798 95.3375 310.756 91.4413 313.316C87.4512 315.938 85.9597 316.066 84.0098 315.324C81.7351 314.459 81.3525 311.661 80.9074 305.914C80.4398 299.878 80.6617 297.842 77.5382 296.537C74.743 295.369 72.4557 296.88 67.9602 298.989C64.3724 300.673 62.5639 300.246 61.415 299.723C60.3069 299.218 59.7853 297.14 59.7853 295.329C59.7853 294.128 59.9922 291.665 60.2733 290.343C61.1973 285.998 56.1463 287.106 52.5404 287.646C45.8867 288.229 45.1614 285.272 47.8902 277.213C49.0597 273.759 49.317 272.856 48.1752 272.519C47.1447 272.216 47.1663 272.431 42.8107 272.285C36.7022 272.082 36.8337 269.057 39.2133 264.232C40.1644 262.303 41.3411 260.934 41.2479 259.708C41.126 258.104 38.2949 257.538 36.9542 256.475C35.87 255.616 34.3268 255.165 33.1001 253.981C31.3986 252.34 33.0814 250.622 36.6936 247.728C39.6616 245.35 41.3589 244.843 40.297 242.279C39.4507 240.236 37.2839 239.778 32.7667 237.745C30.8246 236.871 27.9997 235.366 27.5496 234.012C27.0962 232.647 28.3449 230.582 31.7277 228.083C35.3637 225.397 36.7223 223.746 36.0418 221.383C35.5598 219.71 34.1692 218.393 31.9301 215.985C31.0013 214.986 27.7443 211.808 28.0527 210.335C28.4741 208.323 32.5307 207.783 35.0592 206.986C40.4994 205.27 43.5769 205.148 43.5769 201.523C43.5769 200.589 41.7231 195.996 40.2283 192.11C38.3686 187.275 37.9842 187.051 38.6847 185.597C39.4641 183.978 41.6005 182.583 48.4398 181.071C50.244 180.672 52.0267 179.722 52.0746 178.134C52.1486 175.681 50.2372 173.364 49.0505 170.62C47.7945 167.715 46.2967 166.213 48.2455 163.413C49.1817 162.068 51.0883 162.956 55.4751 162.641C59.8142 162.33 61.9548 162.494 62.771 161.611C65.3415 158.829 63.1769 158.181 65.6363 152.115C66.4783 150.039 66.2113 149.324 70.1583 150.81C76.9512 153.367 80.0661 153.148 82.4441 146.535C83.4454 143.751 85.1567 140.488 86.794 140.179C89.4782 139.671 90.93 141.887 92.4115 143.026C93.3542 143.751 97.1289 146.498 98.0955 146.498C101.051 146.498 101.74 144.457 103.424 138.666C104.614 134.572 106.275 133.005 108.383 133.468C110.214 133.87 112.538 135.762 114.854 138.928C116.035 140.542 118.488 142.248 119.897 142.309C121.648 142.385 123.908 140.759 127.23 136.388C128.323 135.039 129.941 132.692 131.125 132.324Z" fill="#FCF9F6" stroke="#FCF9F6"/>
</svg>
