<svg width="394" height="371" viewBox="0 0 394 371" fill="none" xmlns="http://www.w3.org/2000/svg">
<ellipse cx="187" cy="195.5" rx="187" ry="175.5" fill="#F3A933"/>
<ellipse cx="303" cy="85.5" rx="91" ry="85.5" fill="#6C9289"/>
<path d="M109.036 135.595C108.832 135.188 108.28 133.353 107.808 131.515C106.152 125.07 103.601 121.887 98.7718 120.247C96.9 119.611 96.5867 119.367 97.4778 119.239C102.939 118.457 106.68 115.017 108.049 109.516C109.07 105.414 110.027 104.364 109.922 107.459C109.827 110.306 110.631 112.829 112.393 115.21C113.533 116.75 114.77 117.525 117.827 118.613C120.004 119.388 121.745 120.153 121.696 120.312C121.647 120.471 120.396 120.673 118.916 120.76C117.436 120.846 115.304 121.388 114.179 121.964C110.871 123.658 109.842 125.771 109.612 131.346C109.499 134.089 109.24 136.001 109.036 135.595ZM110.342 122.833C110.839 122.254 112.109 121.323 113.163 120.763L115.079 119.745L113.326 118.307C112.362 117.517 111.006 115.803 110.313 114.499C109.169 112.345 109.013 112.231 108.621 113.261C107.791 115.443 105.865 117.681 103.936 118.705L101.992 119.738L103.898 121.074C104.989 121.837 106.346 123.428 107.07 124.791L108.335 127.173L108.886 125.529C109.189 124.626 109.844 123.412 110.342 122.833Z" fill="#FCF9F6" stroke="#FCF9F6" stroke-width="0.768208"/>
<path d="M123.211 113.205C125.763 109.903 125.775 109.875 124.54 110.072C122.729 110.362 122.205 109.764 123.965 109.417C124.741 109.264 125.333 109.022 125.28 108.879C125.226 108.737 123.965 107.6 122.476 106.354C120.988 105.108 119.74 104.009 119.704 103.912C119.521 103.419 121.979 104.731 123.886 106.142L126.05 107.745L126.224 106.517L126.398 105.288L126.923 106.654L127.447 108.02L128.977 106.364C130.923 104.258 132.977 102.538 132.862 103.112C132.814 103.354 131.813 104.729 130.638 106.166C128.523 108.753 128.513 108.777 129.705 108.61C131.637 108.338 131.921 108.969 130.03 109.329L128.407 109.639L130.032 111.14C130.925 111.966 132.314 113.379 133.119 114.281C134.358 115.669 134.454 115.864 133.746 115.547C133.285 115.341 131.785 114.265 130.412 113.155L127.914 111.136L127.784 112.33L127.655 113.523L127.089 112.387C126.777 111.762 126.448 111.278 126.356 111.312C126.264 111.346 125.114 112.53 123.801 113.942C122.488 115.354 121.239 116.516 121.025 116.523C120.81 116.53 121.794 115.037 123.211 113.205Z" fill="#FCF9F6" stroke="#FCF9F6" stroke-width="0.534093"/>
<path d="M170.391 128.968C163.703 128.798 154.56 131.501 149.65 133.436C141.633 136.595 131.645 147.042 127.467 156.06C124.493 162.478 124.715 171.347 125.999 177.531C128.931 191.656 140.214 202.818 154.661 206.521C156.978 207.114 162.039 208.082 167.009 207.943C174.973 207.721 177.573 206.266 181.837 204.662C193.98 200.096 200.902 189.626 202.926 178.64C205.664 163.777 202.017 148.511 193.651 139.804C187.304 133.199 177.194 129.14 170.391 128.968ZM169.792 130.123C175.618 130.443 178.49 131.421 183.379 133.837C194.156 139.164 199.242 148.44 201.491 159.224C202.751 165.268 202.437 176.37 201.001 181.278C197.809 192.195 191.403 199.51 178.374 204.692C173.192 206.752 164.034 207.522 155.795 205.425C146.635 203.093 135.709 196.278 131.234 187.883C126.792 179.548 125.564 169.018 127.11 161.152C128.344 154.873 139.269 136.49 155.077 132.698C159.425 131.655 165.294 130.196 169.792 130.123Z" fill="#FCF9F6" stroke="#FCF9F6"/>
<path d="M170.109 121.807C168.509 121.62 165.093 121.604 163.149 121.879C155.275 122.993 149.77 125.103 142.704 129.716C134.796 134.878 131.346 138.28 126.889 144.796C118.765 156.671 116.982 166.252 119.556 178.996C122.59 194.023 126.789 199.074 133.583 205.7C139.605 211.571 147.385 215.59 155.295 216.913C163.287 218.249 174.597 216.916 183.571 213.58C200.154 207.417 206.206 200.83 211.827 182.822C215.77 170.191 215.156 159.67 209.903 149.825C204.247 139.224 198.031 132.804 185.686 126.701C178.062 122.932 175.709 122.462 170.109 121.807ZM166.803 123.078C170.683 123.002 177.355 123.851 184.754 127.443C192.153 131.035 200.28 137.371 203.773 142.145C207.734 147.559 211.929 155.978 212.988 161.912C214.505 170.409 211.447 184.074 205.494 195.402C201.244 203.49 194.386 208.21 179.53 213.274C174.643 214.94 171.631 215.426 164.911 215.634C151.122 216.06 142.959 213.012 134.224 204.177C127.792 197.67 125.138 194.592 122.436 184.937C118.576 171.146 118.391 164.394 124.159 152.43C128.227 143.994 132.142 139.057 139.412 133.655C150.506 125.41 159.734 123.216 166.803 123.078Z" fill="#FCF9F6" stroke="#FCF9F6"/>
<path d="M139.747 71.7097C132.268 73.7001 114.023 83.4283 105.502 91.4681C93.6643 102.636 82.573 114.448 76.0393 127.427C61.8552 155.603 65.5835 193.143 85.517 222.824C93.843 235.222 111.022 249.407 126.992 257.074C135.045 260.94 140.909 262.612 149.669 263.537C152.975 263.886 164.022 264.051 174.214 264.275C187.16 264.559 199.789 261.732 214.114 255.377C236.646 245.38 251.581 232.855 262.239 206.918C266.949 195.455 269.164 185.365 269.164 170.334C269.164 149.396 266.337 134.858 259.484 120.544C252.271 105.477 245.906 95.8147 226.619 83.4365C205.847 70.1055 191.369 68.0828 176.575 67.675C162.609 67.2901 153.324 68.0964 139.747 71.7097ZM191.524 70.8903C200.833 72.8278 205.624 73.689 219.755 81.6611C231.128 88.0776 240.313 94.1676 248.273 104.586C260.146 120.126 267.688 142.445 267.713 169.128C267.728 185.044 266.314 191.67 261.594 204.517C255.311 221.614 242.255 239.246 224.434 248.829C208.969 257.145 194.733 261.395 182.698 262.139C162.835 263.366 143.778 262.138 129.818 256.3C119.512 251.99 104.283 240.872 94.5643 231.153C78.1321 214.721 69.8451 191.145 68.9395 166.703C68.3321 150.311 70.6647 141.018 77.4337 127.863C85.5968 111.999 100.222 96.5183 117.697 84.544C132.157 74.6356 143.436 69.9701 163.603 69.2943C172.099 69.0096 183.112 69.3409 191.524 70.8903Z" fill="#FCF9F6" stroke="#FCF9F6"/>
<path d="M177.127 32.0078C175.037 32.1026 173.063 35.6375 170.07 39.1617C160.421 50.5247 159.76 47.714 153.523 41.0075C151.506 38.839 148.488 36.0993 146.609 35.1022C143.565 33.4873 142.932 33.3961 140.813 34.2737C139.02 35.0166 138.125 36.138 137.175 38.8338C136.481 40.8001 135.302 43.8267 134.786 45.6338C132.794 52.6157 132.174 52.7953 129.433 52.7953C128.81 52.7953 125.069 50.8767 123.077 49.0316C118.48 44.7733 117.745 43.6981 114 43.6981C109.818 43.6981 108.697 47.1705 106.088 52.903C104.574 56.2305 102.895 59.3977 101.587 60.1382C99.573 61.2787 96.6812 61.4474 90.8767 59.6272C88.3254 58.8272 84.2897 57.3726 83.0974 57.6005C80.3774 58.1205 80.4199 62.3419 79.2603 67.9814C77.8166 75.0018 78.6999 75.3821 68.6106 75.6746C60.3154 75.915 58.2835 75.5442 56.7451 76.5402C54.1161 78.2425 52.8668 83.385 57.1997 89.4169C66.4184 102.25 58.7983 101.998 52.2636 103.185C41.1748 105.2 39.7749 107.17 44.3912 121.142C47.0072 129.06 50.3712 134.215 48.7976 135.574C46.9369 137.18 42.4205 138.626 38.1781 139.7C34.6119 140.603 29.5199 141.682 28.2044 143.245C24.9648 147.095 28.3981 149.468 35.0313 156.939C39.8542 162.371 40.4058 164.618 34.9603 168.641C29.2721 172.843 25.5754 176.299 26.0391 179.248C26.5166 182.284 28.3655 183.015 35.2166 186.347C44.4179 190.821 50.0356 191.75 40.7701 198.192C39.1136 199.344 35.969 201.299 34.7661 202.498C33.0774 204.182 32.515 206.044 33.9606 208.719C34.9076 210.471 38.361 211.608 40.7824 213.426C42.8262 214.96 45.2438 215.846 45.8136 217.166C46.1253 217.889 44.9905 220.342 43.726 222.847C40.937 228.372 40.62 231.84 42.9746 233.971C44.2965 235.167 45.8532 236.294 51.1251 236.294C59.1694 236.225 57.9895 235.372 55.6604 242.524C53.4543 249.282 53.2277 253.306 54.9187 255.721C56.6394 258.177 60.97 259.112 66.4626 258.212C74.4158 256.91 73.9314 256.486 73.3245 264.244C72.6583 272.76 73.7603 275.562 78.0913 276.374C80.3513 276.798 83.0906 276.514 86.9491 274.611C93.3544 271.453 96.7975 269.662 99.8114 271.221C103.479 273.117 102.759 276.331 103.206 284.482C103.664 292.833 104.761 296.364 108.339 297.832C111.98 299.327 115.202 299.358 120.827 294.83C123.662 292.548 128.163 289.346 129.709 288.836C133.749 287.503 133.68 290.585 135.979 297.512C137.286 301.45 137.563 302.457 139.999 305.557C145.345 312.361 153.184 305.227 157.999 296.076C162.713 287.115 166.36 288.913 169.91 299.376C172.478 306.945 175.799 309 179.673 309C185.279 309 188.038 302.512 190.606 294.796C193.631 285.708 197.902 287.881 204.401 297.369C208.153 302.847 209.54 302.845 212.172 302.845C216.021 302.845 218.272 300.778 219.203 299.038C219.617 298.264 221.419 295.919 221.462 291.526C221.575 279.977 223.681 279.153 229.235 283.214C236.981 288.876 239.756 289.5 244.461 286.631C247.156 283.863 246.702 279.645 246.552 277.011C246.139 269.761 245.631 267.457 247.52 265.756C248.197 265.146 250.171 266.312 252.523 267.874C257.38 271.098 261.622 272.48 266.01 271.032C270.326 269.608 271.207 266.948 268.822 259.297C266.942 253.267 266.361 248.098 267.291 245.675C267.672 244.68 269.692 243.698 273.538 244.704C278.899 246.108 283.071 246.149 285.955 244.596C286.959 244.055 288.146 243.459 288.33 240.952C288.532 238.202 287.392 235.651 284.986 230.447C283.373 226.957 281.616 224.405 281.975 221.921C282.125 220.884 282.645 220.341 286.356 219.045C289.335 218.005 295.07 217.115 299.09 214.028C301.84 211.917 301.121 207.921 295.707 203.993C291.14 200.679 288.399 198.042 288.399 196.966C288.399 196.44 290.344 195.638 292.591 194.792C294.814 193.955 296.69 192.953 298.252 192.19C300.638 191.025 302.746 190.472 302.788 187.799C302.828 185.203 301.837 183.15 296.024 179.619C288.376 174.973 288.477 171.236 295.643 167.136C301.43 163.825 303.406 162.205 303.104 159.045C302.884 156.749 302.457 157.05 296.739 152.642C294.088 150.599 286.473 147.256 287.405 143.371C287.754 141.916 289.775 139.574 291.641 137.234C293.162 135.326 294.161 134.102 295.451 130.996C298.352 124.013 293.865 120.798 287.957 118.51C282.107 116.244 279.608 114.243 279.134 111.764C278.918 110.635 279.409 105.823 280.208 102.475C282.293 93.7472 282.768 92.9448 279.576 91.6113C278.109 90.9981 276.963 90.6367 272.754 90.6892C267.089 90.76 265.554 90.2785 266.008 85.0252C266.186 82.9626 266.669 79.023 266.9 77.0891C267.545 71.6895 268.036 67.3845 265.284 66.4288C263.189 65.701 262.286 65.5005 253.095 67.5679C249.921 68.2819 246.582 68.8541 245.618 68.6135C243.594 68.1086 242.855 66.4955 240.977 59.0243C239.578 53.4599 238.906 48.1907 234.51 48.0822C232.77 48.0393 229.712 49.4089 226.762 50.7332C218.893 54.2657 218.788 54.2468 216.131 48.6794C212.984 42.0853 210.878 37.0123 206.92 37.0218C204.555 37.0271 201.482 39.6405 197.47 42.1449C190.196 46.6849 188.876 47.1082 182.906 37.8788C179.476 32.5774 179.177 31.9149 177.127 32.0078ZM176.975 33.9012C178.669 33.3743 179.943 35.3821 180.953 37.2816C184.515 43.9812 188.654 46.5858 189.908 46.8738C191.446 47.2272 194.439 45.9511 197.095 44.1352C200.521 41.7933 205.397 38.5543 206.414 38.5543C208.581 38.5543 209.608 39.3388 212.54 44.4852C213.686 46.4983 216.328 52.6951 217.376 53.3818C219.156 54.5481 221.315 54.6854 225.009 52.6573C230.383 49.7077 234.393 49.1475 235.96 49.8165C237.984 50.6799 238.746 55.1778 239.492 58.0131C241.024 63.8393 242.686 69.1597 245.057 69.7406C246.418 70.074 250.087 69.515 253.412 68.6492C254.849 68.2748 260.084 66.769 261.937 67.0785C266.897 67.9073 266.755 70.3804 266.193 74.9627C265.608 79.7291 264.663 86.6176 265.277 88.9516C265.832 91.0604 268.641 91.8247 273.345 91.83C275.572 91.8332 279.296 91.9152 280.222 93.5234C281.11 95.0664 279.704 100.579 278.951 104.22C278.532 106.248 278.248 109.218 278.081 111.578C277.905 114.057 282.964 117.584 286.424 118.691C292.627 120.676 294.369 122.887 295.36 125.685C296.185 128.012 293.896 132.079 291.662 135.469C289.631 138.55 284.355 141.548 286.673 146.509C287.468 148.21 296.416 153.608 298.368 155.135C300.672 156.939 302.047 157.834 301.86 159.48C301.774 160.233 299.467 163.672 294.969 166.005C293.266 166.889 290.029 168.51 289.313 172.091C288.717 175.072 288.677 176.102 295.573 180.801C302.551 185.556 303 188.628 297.543 191.117C291.356 193.94 287.267 194.496 287.077 196.821C286.912 198.844 287.309 199.33 294.748 205.383C297.777 207.847 298.819 208.674 299.051 210.849C299.29 213.081 294.234 215.234 292.587 215.751C286.162 217.765 281.185 218.46 280.658 220.851C279.941 224.104 281.363 225.972 284.255 231.779C287.01 237.314 288.746 239.55 286.648 242.877C285.251 245.093 279.76 244.974 275.87 244.166C266.244 242.166 266.734 243.886 265.889 246.696C265.293 248.676 265.731 251.874 267.445 259.013C269.429 267.277 268.112 270.303 263.155 270.303C259.972 270.303 254.971 267.917 251.022 264.915C244.295 259.803 243.671 266.174 245.056 278.071C245.688 283.508 243.955 285.115 242.695 285.74C239.67 287.241 236.963 287.044 229.343 281.474C227.676 280.255 226.125 279.522 224.365 279.686C222.7 279.841 220.111 280.364 220.095 289.577C220.088 293.308 219.208 296.218 218.184 298.157C217.349 299.739 214.608 301.202 212.758 301.408C209.42 301.78 208.709 300.288 204.188 295.16C200.212 290.65 198.299 287.522 195.863 287.522C195.458 287.522 193.594 287.578 192.301 288.666C190.617 290.084 189.923 292.08 188.796 295.861C187.67 299.642 185.962 303.841 184.277 305.259C181.078 307.951 177.733 308.288 175.592 305.566C173.957 303.487 172.752 301.811 171.695 299.011C171.424 298.293 169.434 294.308 168.867 292.98C167.937 290.801 166.649 288.168 163.886 288.168C161.03 288.168 157.953 291.435 155.684 295.912C152.481 302.232 148.857 306.538 145.376 306.538C141.495 306.538 139.073 302.097 138.653 299.888C138.474 298.943 136.524 294.745 135.714 292.101C134.033 286.615 131.874 286.635 129.574 287.521C126.307 288.779 125.578 290.154 119.983 293.831C114.252 297.597 112.111 297.78 109.31 296.715C106.043 295.473 105.494 291.454 104.855 283.201C104.183 274.532 104.502 271.609 100.016 269.734C96.0017 268.057 92.7169 270.226 86.2607 273.256C81.1081 275.674 78.5109 275.061 76.8609 274.309C75.2694 273.584 74.5204 270.599 74.5204 268C74.5204 266.274 74.8175 262.737 75.2212 260.839C76.5482 254.599 69.2943 256.19 64.1157 256.965C54.5601 257.802 53.5184 253.555 57.4373 241.982C59.1169 237.022 59.4865 235.724 57.8467 235.241C56.3667 234.806 56.3977 235.114 50.1425 234.905C41.3699 234.613 41.5587 230.27 44.9761 223.339C46.342 220.57 48.0319 218.603 47.898 216.842C47.723 214.54 43.6572 213.726 41.7317 212.2C40.1747 210.967 37.9584 210.318 36.1967 208.618C33.7531 206.261 36.1698 203.794 41.3575 199.638C45.62 196.223 48.0576 195.494 46.5325 191.812C45.3171 188.878 42.2053 188.221 35.718 185.301C32.9288 184.046 28.8719 181.884 28.2255 179.939C27.5743 177.98 29.3676 175.013 34.2258 171.424C39.4476 167.567 41.3987 165.196 40.4214 161.803C39.7292 159.399 37.7321 157.509 34.5165 154.051C33.1826 152.616 28.5051 148.051 28.948 145.936C29.5531 143.046 35.379 142.272 39.0103 141.126C46.8231 138.662 51.2429 138.487 51.2429 133.281C51.2429 131.94 48.5806 125.343 46.4338 119.762C43.763 112.818 43.211 112.497 44.217 110.408C45.3364 108.084 48.4044 106.08 58.2266 103.909C60.8178 103.336 63.3779 101.972 63.4467 99.6908C63.553 96.1682 60.808 92.8401 59.1038 88.8991C57.3 84.7279 55.149 82.5702 57.9477 78.5494C59.2922 76.6179 62.0303 77.8933 68.3304 77.4412C74.5619 76.994 77.6361 77.2297 78.8083 75.9613C82.4998 71.9668 79.3913 71.0351 82.9232 62.3246C84.1324 59.3424 83.749 58.3165 89.4175 60.4501C99.173 64.1221 103.646 63.8069 107.062 54.3103C108.5 50.3119 110.957 45.6265 113.309 45.1821C117.164 44.4534 119.249 47.6358 121.376 49.2717C122.73 50.3125 128.151 54.2576 129.539 54.2576C133.784 54.2576 134.774 51.3257 137.191 43.0089C138.901 37.1299 141.286 34.8802 144.313 35.5446C146.943 36.1217 150.28 38.8388 153.607 43.3853C155.303 45.7031 158.825 48.1538 160.849 48.2412C163.363 48.3499 166.61 46.0147 171.381 39.7385C172.95 37.7999 175.274 34.4299 176.975 33.9012Z" fill="#FCF9F6" stroke="#FCF9F6"/>
</svg>
